<svg id="svg" version="1.1" xmlns="http://www.w3.org/2000/svg" xmlns:xlink="http://www.w3.org/1999/xlink" width="400" height="382.5925925925926" viewBox="0, 0, 400,382.5925925925926"><g id="svgg"><path id="path0" d="M193.889 68.757 C 193.278 68.827,190.944 69.063,188.704 69.280 C 127.218 75.244,89.987 141.124,116.640 196.797 C 147.202 260.634,236.188 265.421,273.679 205.244 C 305.577 154.043,277.791 86.091,219.005 71.532 C 210.238 69.361,199.226 68.144,193.889 68.757 M208.757 73.156 C 279.136 82.873,308.276 168.407,258.351 218.728 C 211.429 266.022,130.602 244.074,114.236 179.595 C 99.313 120.798,148.953 64.898,208.757 73.156 M193.333 101.911 C 165.423 104.520,145.650 132.351,152.461 159.438 C 152.769 160.664,153.115 162.083,153.230 162.593 C 155.136 171.070,159.196 176.235,180.939 197.849 L 197.963 214.772 216.142 196.686 C 235.154 177.771,236.633 176.093,239.817 169.828 C 252.707 144.459,240.152 113.369,213.333 104.246 C 208.676 102.662,200.565 101.275,197.461 101.532 C 197.126 101.560,195.269 101.730,193.333 101.911 M205.000 120.926 C 215.499 123.099,225.003 132.698,227.403 143.552 C 232.651 167.293,209.200 186.898,186.450 177.789 C 164.922 169.169,161.559 139.282,180.589 125.703 C 184.772 122.718,187.821 121.574,195.185 120.224 C 196.678 119.951,202.193 120.345,205.000 120.926 M180.370 131.481 C 178.762 133.089,179.727 135.560,183.897 140.511 C 185.474 142.385,186.667 144.145,186.667 144.601 C 186.667 145.041,186.074 149.978,185.349 155.571 C 183.655 168.642,183.645 167.603,185.483 169.318 C 188.454 172.090,188.552 172.000,192.786 162.593 C 194.574 158.620,196.193 155.204,196.384 155.000 C 196.609 154.760,197.815 155.787,199.802 157.908 L 202.872 161.186 202.180 163.464 C 201.239 166.557,201.261 166.708,203.056 169.443 C 205.469 173.121,206.369 173.039,208.193 168.975 L 209.234 166.654 210.636 166.871 C 212.514 167.163,213.407 166.475,213.407 164.739 C 213.407 163.420,213.426 163.405,216.056 162.539 C 219.548 161.389,219.740 160.559,217.202 157.588 L 215.466 155.556 211.520 155.556 L 207.574 155.556 204.898 152.862 C 201.379 149.318,200.658 150.042,210.892 146.848 C 220.617 143.813,220.833 143.522,216.145 139.783 L 214.327 138.333 209.293 138.426 C 206.524 138.477,201.636 138.623,198.430 138.751 L 192.600 138.983 189.119 135.656 C 184.390 131.135,181.903 129.948,180.370 131.481 M137.852 265.630 C 137.217 266.265,137.217 288.550,137.852 289.185 C 138.433 289.766,139.806 289.754,140.296 289.163 C 140.513 288.902,140.737 286.306,140.805 283.263 C 140.962 276.193,142.042 274.583,146.113 275.346 C 148.148 275.728,148.519 276.972,148.519 283.433 C 148.519 289.178,148.660 289.630,150.454 289.630 C 153.209 289.630,152.876 275.329,150.062 272.823 C 148.280 271.236,144.892 271.441,142.611 273.274 C 140.785 274.742,140.741 274.665,140.741 270.012 C 140.741 265.874,140.503 265.185,139.074 265.185 C 138.646 265.185,138.096 265.385,137.852 265.630 M60.109 266.445 C 52.183 268.413,52.367 277.544,60.370 279.444 C 66.236 280.836,67.037 281.318,67.037 283.461 C 67.037 286.813,61.499 287.664,57.389 284.944 C 54.562 283.073,52.714 285.466,55.218 287.753 C 60.198 292.302,70.078 289.728,70.654 283.731 C 71.057 279.538,69.407 277.836,63.420 276.271 C 58.000 274.853,56.603 273.259,58.672 270.854 C 59.991 269.320,63.696 269.342,66.774 270.901 L 68.918 271.988 69.711 271.195 C 72.248 268.657,65.213 265.177,60.109 266.445 M203.407 266.370 C 202.463 267.315,203.289 269.639,204.563 269.625 C 206.514 269.602,207.506 268.235,206.685 266.701 C 206.216 265.824,204.161 265.616,203.407 266.370 M241.943 266.353 C 240.898 267.398,241.815 269.630,243.289 269.630 C 245.604 269.630,245.995 266.195,243.702 266.002 C 242.988 265.941,242.197 266.100,241.943 266.353 M283.037 266.370 C 282.333 267.075,282.497 268.812,283.309 269.246 C 285.260 270.290,287.228 268.493,286.235 266.574 C 285.844 265.817,283.725 265.682,283.037 266.370 M228.050 266.759 C 227.016 267.543,218.775 287.336,218.955 288.602 C 219.239 290.608,221.167 289.708,222.525 286.934 L 223.754 284.424 228.947 284.527 L 234.140 284.630 234.940 286.519 C 236.298 289.724,237.510 290.481,238.658 288.841 C 239.287 287.944,239.314 288.028,235.676 279.444 C 234.554 276.796,232.974 273.046,232.166 271.111 C 230.367 266.804,229.375 265.754,228.050 266.759 M265.926 266.579 C 264.526 267.015,264.444 267.655,264.444 278.162 C 264.444 290.879,263.647 289.671,272.039 289.660 C 278.412 289.652,279.236 289.458,279.236 287.963 C 279.236 286.456,278.210 286.113,273.318 285.989 L 268.519 285.867 268.519 276.893 C 268.519 266.928,268.249 265.854,265.926 266.579 M178.354 268.971 C 178.037 269.424,177.778 270.424,177.778 271.194 C 177.778 272.529,177.723 272.593,176.556 272.593 C 175.219 272.593,174.444 273.143,174.444 274.091 C 174.444 274.982,175.650 275.926,176.788 275.926 L 177.778 275.926 177.778 281.056 C 177.778 288.316,178.472 289.630,182.307 289.630 C 185.611 289.630,187.072 286.620,183.894 286.361 C 181.549 286.170,181.481 286.012,181.481 280.695 L 181.481 275.926 182.963 275.926 C 186.529 275.926,186.874 272.751,183.333 272.517 C 181.677 272.408,181.666 272.398,181.547 270.926 C 181.341 268.382,179.540 267.279,178.354 268.971 M192.122 268.796 C 191.800 269.153,191.482 270.111,191.416 270.926 C 191.308 272.265,191.189 272.419,190.185 272.533 C 187.344 272.853,187.536 275.926,190.397 275.926 L 191.481 275.926 191.481 281.056 C 191.481 288.335,192.171 289.630,196.052 289.630 C 199.653 289.630,200.658 286.451,197.128 286.224 L 195.370 286.111 195.267 281.019 L 195.164 275.926 196.495 275.926 C 198.255 275.926,199.261 275.347,199.254 274.339 C 199.244 273.018,198.794 272.651,197.031 272.526 C 195.383 272.408,195.369 272.396,195.250 270.926 C 195.120 269.311,194.317 268.148,193.333 268.148 C 192.989 268.148,192.444 268.440,192.122 268.796 M81.735 272.009 C 80.957 272.291,80.028 272.788,79.669 273.113 C 78.874 273.832,78.148 273.879,78.148 273.211 C 78.148 272.331,76.514 271.709,75.639 272.256 C 74.633 272.884,74.562 273.801,74.628 285.370 C 74.688 295.808,74.761 296.296,76.262 296.296 C 77.906 296.296,78.148 295.716,78.148 291.778 C 78.148 289.781,78.273 288.149,78.426 288.150 C 78.579 288.151,79.524 288.567,80.526 289.076 C 87.692 292.711,94.470 284.079,90.623 276.215 C 89.546 274.015,86.966 271.857,85.399 271.847 C 84.976 271.844,84.296 271.764,83.889 271.669 C 83.481 271.574,82.512 271.727,81.735 272.009 M101.111 271.859 C 93.216 273.265,91.970 285.504,99.337 289.293 C 101.608 290.461,105.186 290.009,107.055 288.317 C 107.592 287.831,107.702 287.873,108.080 288.701 C 108.545 289.722,110.226 289.997,111.037 289.185 C 111.667 288.556,111.667 272.926,111.037 272.296 C 110.277 271.536,108.592 271.760,108.111 272.685 C 107.873 273.144,107.630 273.575,107.572 273.644 C 107.513 273.713,106.994 273.427,106.418 273.009 C 105.106 272.056,102.804 271.558,101.111 271.859 M121.479 271.811 C 112.138 274.816,113.689 290.000,123.336 290.000 C 124.792 290.000,127.483 288.925,127.960 288.153 C 128.454 287.354,128.889 287.839,128.889 289.189 C 128.889 292.365,125.087 293.896,120.926 292.397 C 118.683 291.589,117.819 291.695,117.386 292.834 C 116.036 296.385,125.695 297.689,129.948 294.529 C 132.354 292.741,132.575 291.656,132.584 281.583 L 132.593 272.610 131.667 272.003 C 130.620 271.317,128.889 272.036,128.889 273.157 C 128.889 273.862,128.898 273.863,126.989 272.797 C 125.163 271.776,122.866 271.365,121.479 271.811 M162.007 271.996 C 154.536 274.376,153.664 285.801,160.696 289.172 C 164.430 290.962,170.926 289.370,170.926 286.665 C 170.926 285.029,170.195 284.851,167.772 285.893 C 164.776 287.182,161.934 286.640,160.401 284.488 C 158.883 282.355,159.113 282.223,164.352 282.218 C 172.478 282.211,173.182 281.836,172.089 278.100 C 170.726 273.442,166.155 270.674,162.007 271.996 M315.762 272.034 C 306.507 275.331,308.567 290.008,318.283 289.998 C 322.751 289.993,326.541 287.430,324.741 285.630 C 324.112 285.000,323.335 285.075,321.667 285.926 C 318.934 287.319,315.812 286.563,314.174 284.112 C 312.914 282.226,312.921 282.223,318.796 282.217 C 325.134 282.210,326.048 281.941,326.232 280.025 C 326.712 275.019,320.562 270.324,315.762 272.034 M334.444 271.859 C 327.288 273.107,327.680 279.805,335.053 282.255 C 339.226 283.642,340.125 284.690,338.519 286.296 C 337.210 287.605,333.022 286.863,331.529 285.059 C 330.546 283.872,328.889 284.555,328.889 286.147 C 328.889 288.991,335.373 290.992,339.103 289.298 C 344.680 286.765,343.076 281.057,336.284 279.265 C 333.977 278.656,332.963 277.925,332.963 276.870 C 332.963 274.670,336.175 274.048,338.698 275.761 C 340.484 276.973,341.625 276.849,341.788 275.424 C 342.040 273.214,337.980 271.242,334.444 271.859 M203.981 272.367 C 203.400 272.809,203.333 273.672,203.333 280.800 C 203.333 289.135,203.427 289.630,205.000 289.630 C 206.571 289.630,206.667 289.130,206.667 280.909 C 206.667 271.990,206.245 270.649,203.981 272.367 M242.407 272.434 C 241.468 273.143,241.077 286.833,241.948 288.519 C 242.483 289.555,243.837 289.917,244.650 289.242 C 245.534 288.509,245.430 273.045,244.537 272.367 C 243.705 271.736,243.317 271.748,242.407 272.434 M250.639 272.374 C 250.048 272.822,249.976 273.670,249.934 280.682 C 249.884 288.979,250.008 289.630,251.638 289.630 C 253.151 289.630,253.333 289.005,253.333 283.822 C 253.333 276.367,254.432 274.493,258.488 275.031 C 260.295 275.271,261.111 274.759,261.111 273.384 C 261.111 271.328,256.195 271.409,254.465 273.494 C 253.874 274.206,253.333 274.245,253.333 273.576 C 253.333 272.304,251.694 271.573,250.639 272.374 M283.592 272.315 C 282.796 272.906,282.574 288.160,283.349 289.093 C 283.889 289.744,285.243 289.794,285.852 289.185 C 286.671 288.366,286.461 273.227,285.619 272.465 C 284.808 271.731,284.418 271.702,283.592 272.315 M291.717 272.325 C 291.136 272.749,291.069 273.610,291.064 280.681 C 291.058 289.023,291.174 289.630,292.778 289.630 C 294.196 289.630,294.384 288.919,294.509 283.059 C 294.653 276.353,295.032 275.604,298.458 275.275 C 301.795 274.954,302.222 275.773,302.222 282.493 C 302.222 288.473,302.549 289.630,304.235 289.630 C 305.861 289.630,305.995 289.002,305.864 281.963 C 305.751 275.911,305.673 275.262,304.917 274.045 C 303.138 271.185,298.205 270.980,295.775 273.666 C 294.896 274.637,294.444 274.657,294.444 273.725 C 294.444 272.427,292.759 271.563,291.717 272.325 M230.572 276.496 C 232.680 281.009,232.787 280.741,228.889 280.741 C 225.009 280.741,225.134 281.032,227.082 276.508 C 228.926 272.227,228.577 272.228,230.572 276.496 M86.342 276.141 C 90.049 279.445,87.760 286.667,83.005 286.667 C 78.222 286.667,76.346 278.491,80.526 275.862 C 81.994 274.938,85.162 275.090,86.342 276.141 M105.968 276.149 C 108.589 278.521,108.507 284.008,105.826 285.699 C 100.455 289.084,95.251 282.031,99.312 276.869 C 100.752 275.039,104.315 274.653,105.968 276.149 M126.285 275.659 C 130.020 277.549,129.798 284.365,125.945 286.103 C 120.030 288.770,115.722 280.085,120.929 275.989 C 122.102 275.067,124.788 274.901,126.285 275.659 M167.259 276.444 C 169.464 278.650,169.152 278.889,164.074 278.889 C 159.214 278.889,158.971 278.756,160.252 276.802 C 161.622 274.710,165.336 274.521,167.259 276.444 M321.299 276.299 C 323.474 278.342,322.730 278.889,317.778 278.889 C 312.959 278.889,312.989 278.903,314.078 277.117 C 315.395 274.957,319.389 274.505,321.299 276.299 " stroke="none" fill="#f2a926" fill-rule="evenodd"></path><path id="path1" d="M0.000 191.296 L 0.000 382.593 200.000 382.593 L 400.000 382.593 400.000 191.296 L 400.000 0.000 200.000 0.000 L 0.000 0.000 0.000 191.296 M208.519 68.882 C 230.646 71.682,254.537 84.617,266.338 100.185 C 266.802 100.796,267.690 101.885,268.313 102.605 C 273.999 109.179,280.849 122.460,283.873 132.778 C 287.493 145.128,288.542 159.460,286.671 171.019 C 286.465 172.292,286.113 174.458,285.890 175.833 C 285.185 180.163,282.484 189.057,280.710 192.887 C 280.116 194.169,279.630 195.370,279.630 195.556 C 279.630 195.741,279.130 196.741,278.519 197.778 C 277.907 198.814,277.407 199.723,277.407 199.798 C 277.407 200.760,269.314 213.177,267.220 215.428 C 266.814 215.864,265.565 217.274,264.444 218.559 C 261.777 221.620,258.124 225.174,255.425 227.337 C 254.233 228.293,252.399 229.795,251.351 230.675 C 250.302 231.556,248.404 232.861,247.133 233.576 C 245.862 234.290,244.727 235.027,244.612 235.214 C 244.497 235.401,243.537 235.965,242.479 236.469 C 241.421 236.972,239.675 237.888,238.599 238.503 C 234.877 240.632,228.237 243.334,222.963 244.864 C 218.848 246.058,217.726 246.305,212.407 247.183 C 180.981 252.373,148.777 240.610,128.715 216.614 C 125.729 213.042,122.222 208.376,122.222 207.974 C 122.222 207.879,121.492 206.671,120.599 205.289 C 119.098 202.967,114.074 193.324,114.074 192.765 C 114.074 192.630,113.834 191.994,113.540 191.352 C 109.559 182.653,106.663 164.484,107.484 153.359 C 108.107 144.915,110.363 133.051,111.872 130.283 C 112.065 129.929,112.222 129.416,112.222 129.143 C 112.222 127.652,118.098 115.050,120.422 111.556 C 121.005 110.680,121.481 109.888,121.481 109.798 C 121.481 109.527,125.155 104.452,127.368 101.667 C 137.308 89.155,154.477 77.193,168.704 72.866 C 183.431 68.387,195.255 67.204,208.519 68.882 M191.111 73.212 C 181.863 74.146,167.856 77.417,165.370 79.223 C 165.167 79.371,163.833 79.967,162.407 80.548 C 158.619 82.091,151.968 85.912,147.483 89.122 C 139.187 95.060,129.009 106.005,124.871 113.438 C 124.393 114.297,123.556 115.750,123.012 116.667 C 112.247 134.789,109.234 160.686,115.428 181.852 C 117.603 189.285,121.850 198.716,125.459 204.128 C 126.021 204.972,126.648 205.933,126.852 206.264 C 127.458 207.250,128.987 209.403,129.505 210.000 C 129.771 210.306,130.857 211.639,131.920 212.963 C 135.955 217.991,147.651 228.519,149.204 228.519 C 149.404 228.519,149.623 228.660,149.691 228.833 C 149.899 229.360,154.668 232.222,155.340 232.222 C 155.686 232.222,155.886 232.357,155.784 232.523 C 155.613 232.799,159.736 234.913,164.888 237.189 C 188.992 247.841,220.634 244.911,243.980 229.866 C 252.153 224.600,267.037 210.118,267.037 207.433 C 267.037 207.215,267.181 207.037,267.357 207.037 C 267.865 207.037,274.590 195.527,274.822 194.262 C 274.839 194.168,275.345 193.008,275.945 191.684 C 276.546 190.359,277.037 189.089,277.037 188.862 C 277.037 188.634,277.282 188.005,277.582 187.465 C 280.588 182.042,282.804 167.691,282.459 155.875 C 282.252 148.761,282.061 146.753,281.127 141.852 C 280.914 140.731,280.634 139.103,280.506 138.232 C 280.377 137.362,280.128 136.560,279.951 136.451 C 279.774 136.342,279.630 135.958,279.630 135.598 C 279.630 134.769,277.579 128.502,276.586 126.296 C 266.767 104.480,250.711 87.950,231.852 80.241 C 230.935 79.866,229.629 79.311,228.950 79.007 C 219.531 74.792,202.023 72.111,191.111 73.212 M205.220 101.646 C 224.352 104.783,240.171 119.148,244.196 137.037 C 245.421 142.486,245.556 143.602,245.556 148.343 C 245.556 162.708,240.775 173.340,229.199 184.715 C 227.078 186.799,219.349 194.507,212.024 201.845 C 204.698 209.182,198.454 215.185,198.149 215.184 C 197.008 215.182,161.492 179.328,158.942 175.603 C 156.611 172.200,153.293 165.655,152.815 163.519 C 152.679 162.907,152.333 161.574,152.048 160.556 C 150.247 154.131,149.861 145.500,151.138 140.185 C 152.708 133.647,154.993 127.694,157.392 123.889 C 160.602 118.798,166.107 112.760,169.450 110.663 C 170.268 110.150,171.163 109.458,171.440 109.124 C 171.716 108.791,172.072 108.519,172.230 108.519 C 172.388 108.519,173.576 107.891,174.870 107.124 C 176.164 106.357,177.806 105.501,178.519 105.221 C 182.562 103.633,187.570 102.143,190.000 101.804 C 191.528 101.592,192.847 101.349,192.932 101.264 C 193.307 100.893,202.335 101.173,205.220 101.646 M191.596 121.371 C 189.071 122.053,186.176 123.026,185.741 123.339 C 185.537 123.486,184.370 124.155,183.148 124.827 C 168.280 133.000,164.063 154.028,174.548 167.713 C 180.689 175.729,189.975 180.101,199.616 179.514 C 212.581 178.724,222.512 170.638,226.537 157.593 C 227.402 154.786,227.510 145.936,226.710 143.333 C 224.156 135.028,221.360 130.878,215.156 126.183 C 209.152 121.640,198.588 119.482,191.596 121.371 M184.325 131.027 C 185.380 131.582,187.697 133.431,189.475 135.135 L 192.707 138.233 197.187 138.201 C 199.651 138.184,204.465 138.058,207.885 137.922 L 214.104 137.674 215.848 138.895 C 222.357 143.454,221.633 144.391,208.704 148.149 C 202.796 149.867,202.903 149.772,204.760 151.618 C 205.607 152.459,206.663 153.630,207.107 154.219 L 207.913 155.289 211.642 155.079 C 215.835 154.844,215.697 154.788,218.083 157.675 C 220.536 160.644,219.782 162.596,215.925 163.255 C 214.365 163.521,214.259 163.613,214.259 164.703 C 214.259 166.545,212.767 167.894,210.989 167.658 L 209.571 167.470 208.542 169.763 C 207.409 172.288,206.098 173.280,204.808 172.589 C 203.571 171.927,200.066 166.369,200.630 165.963 C 201.004 165.694,201.902 162.680,201.896 161.714 C 201.891 161.008,197.527 156.045,196.852 155.979 C 196.648 155.959,194.997 159.248,193.183 163.289 C 189.106 172.369,188.428 172.891,184.894 169.660 C 183.140 168.057,183.017 167.340,183.691 162.664 C 183.887 161.301,184.302 158.352,184.613 156.111 C 184.923 153.870,185.346 150.838,185.552 149.373 C 186.054 145.796,186.023 143.857,185.453 143.267 C 178.988 136.584,177.358 132.064,180.862 130.540 C 182.359 129.889,182.096 129.852,184.325 131.027 M140.671 265.200 C 141.401 265.880,141.481 266.325,141.481 269.669 L 141.481 273.384 142.500 272.682 C 146.796 269.725,151.513 271.296,152.342 275.960 C 152.530 277.014,152.741 286.122,152.627 288.226 C 152.525 290.113,150.099 290.873,148.687 289.461 C 147.801 288.576,147.778 288.406,147.778 282.916 C 147.778 276.341,147.609 275.926,144.926 275.926 C 141.855 275.926,141.481 276.726,141.481 283.302 C 141.481 290.174,140.478 291.833,137.662 289.618 L 136.705 288.865 136.677 277.573 L 136.650 266.280 137.567 265.362 C 138.682 264.247,139.597 264.199,140.671 265.200 M206.584 265.762 C 208.482 267.091,207.417 270.000,205.032 270.000 C 203.074 270.000,202.506 269.409,202.661 267.534 C 202.833 265.460,204.852 264.548,206.584 265.762 M245.103 265.762 C 247.038 267.117,245.825 270.000,243.320 270.000 C 240.801 270.000,240.009 266.055,242.407 265.456 C 243.753 265.120,244.271 265.179,245.103 265.762 M286.724 266.005 C 287.229 266.803,287.072 268.801,286.455 269.418 C 285.083 270.790,281.852 269.626,281.852 267.761 C 281.852 265.709,285.664 264.335,286.724 266.005 M66.225 266.122 C 69.280 267.186,70.710 268.440,70.729 270.072 C 70.752 272.009,68.561 272.762,66.525 271.515 C 63.436 269.624,59.486 269.875,58.775 272.007 C 58.144 273.901,59.241 274.755,63.572 275.743 C 67.737 276.692,67.866 276.740,68.993 277.741 C 73.443 281.695,71.521 288.379,65.412 290.194 C 59.797 291.861,51.864 288.253,53.681 284.858 C 54.598 283.143,56.453 283.119,58.133 284.800 C 58.549 285.216,59.233 285.556,59.654 285.556 C 60.075 285.556,60.761 285.739,61.180 285.963 C 62.356 286.592,65.869 285.383,66.322 284.193 C 66.768 283.018,66.796 283.136,65.833 282.131 C 65.023 281.285,64.009 280.904,60.189 280.015 C 55.022 278.812,52.393 274.522,54.214 270.266 C 55.793 266.575,61.688 264.542,66.225 266.122 M230.254 266.256 C 230.699 266.628,231.745 268.580,232.577 270.596 C 233.410 272.611,234.504 275.095,235.009 276.117 C 235.513 277.139,235.926 278.230,235.926 278.543 C 235.926 278.855,236.068 279.269,236.241 279.463 C 236.414 279.656,236.844 280.565,237.197 281.481 C 237.985 283.527,238.839 285.528,239.290 286.384 C 239.850 287.445,239.677 288.605,238.824 289.513 C 237.160 291.285,235.595 290.134,234.058 286.008 L 233.605 284.794 228.797 284.897 L 223.989 285.000 223.055 287.279 C 221.923 290.040,220.840 290.822,219.323 289.973 C 217.634 289.028,218.081 287.361,222.995 276.267 C 223.588 274.926,224.074 273.565,224.074 273.242 C 224.074 272.919,224.210 272.599,224.376 272.531 C 224.542 272.463,225.139 271.241,225.703 269.815 C 227.294 265.790,228.534 264.820,230.254 266.256 M267.887 266.391 C 269.159 267.413,269.164 267.456,269.217 277.500 L 269.259 285.556 273.704 285.556 C 279.351 285.556,281.241 287.019,278.874 289.560 C 277.919 290.586,266.318 290.824,264.978 289.845 C 264.222 289.293,263.515 271.087,264.133 268.091 C 264.592 265.865,266.281 265.101,267.887 266.391 M181.365 268.583 C 181.928 269.112,182.222 269.811,182.222 270.620 C 182.222 271.765,182.308 271.852,183.436 271.852 C 185.198 271.852,186.296 272.753,186.296 274.200 C 186.296 275.556,184.889 276.667,183.172 276.667 L 182.199 276.667 182.303 281.204 L 182.407 285.741 183.781 285.637 C 184.897 285.553,185.266 285.706,185.756 286.452 C 187.782 289.546,181.557 291.815,178.589 289.066 C 177.603 288.153,177.591 288.085,177.475 282.477 L 177.357 276.812 175.808 276.276 C 173.290 275.406,173.357 272.700,175.917 271.855 C 177.218 271.425,177.407 271.221,177.407 270.248 C 177.407 267.958,179.681 267.001,181.365 268.583 M195.069 268.583 C 195.631 269.112,195.926 269.811,195.926 270.620 C 195.926 271.732,196.034 271.856,197.037 271.898 C 198.836 271.973,198.925 272.004,199.474 272.756 C 200.686 274.414,199.725 276.296,197.666 276.296 C 195.896 276.296,195.841 276.450,195.900 281.212 C 195.959 285.912,195.859 285.649,197.598 285.701 C 199.063 285.745,199.615 286.338,199.624 287.876 C 199.633 289.500,197.775 290.474,195.201 290.195 C 191.477 289.791,190.741 288.375,190.741 281.617 L 190.741 276.681 189.722 276.437 C 188.248 276.085,187.778 275.600,187.778 274.429 C 187.778 272.780,188.137 272.258,189.437 272.014 C 190.483 271.818,190.684 271.601,190.867 270.476 C 191.286 267.897,193.349 266.967,195.069 268.583 M125.370 271.363 C 125.981 271.491,126.888 271.911,127.384 272.295 C 128.248 272.963,128.303 272.965,128.649 272.330 C 129.418 270.920,131.325 270.656,132.373 271.814 C 132.942 272.443,133.006 273.528,132.975 282.039 C 132.936 292.895,132.935 292.900,129.847 295.464 C 125.960 298.691,115.525 296.509,116.864 292.749 C 117.475 291.033,118.178 290.866,120.994 291.770 C 124.868 293.012,127.228 292.443,127.944 290.093 C 128.253 289.080,128.260 289.080,125.926 290.000 C 116.945 293.540,110.248 279.875,117.735 273.286 C 119.448 271.777,122.247 270.648,123.519 270.952 C 123.926 271.049,124.759 271.234,125.370 271.363 M166.111 271.375 C 168.496 271.831,172.222 275.075,172.222 276.697 C 172.222 277.064,172.389 277.467,172.593 277.593 C 173.285 278.021,173.022 281.052,172.222 281.852 C 171.547 282.527,170.988 282.593,165.926 282.593 C 161.184 282.593,160.370 282.676,160.370 283.160 C 160.370 283.472,160.620 283.823,160.926 283.940 C 161.231 284.057,161.481 284.390,161.481 284.679 C 161.481 284.967,161.985 285.304,162.600 285.427 C 163.216 285.551,163.812 285.801,163.925 285.985 C 164.220 286.462,166.646 285.960,168.007 285.140 C 170.830 283.439,173.074 286.128,170.762 288.441 C 164.962 294.240,154.509 288.549,155.283 280.013 C 155.730 275.081,160.973 269.918,164.444 270.991 C 164.750 271.086,165.500 271.258,166.111 271.375 M319.815 271.331 C 323.647 272.212,327.037 276.215,327.037 279.860 C 327.037 282.307,326.302 282.593,320.000 282.593 C 314.868 282.593,314.444 282.644,314.444 283.269 C 314.444 285.597,318.482 286.603,321.974 285.145 C 325.714 283.584,327.423 287.004,323.952 289.104 C 313.822 295.235,303.784 281.829,312.202 273.410 C 313.343 272.269,317.133 270.695,318.148 270.941 C 318.454 271.015,319.204 271.191,319.815 271.331 M340.586 272.611 C 342.611 273.863,343.145 275.442,341.980 276.730 C 341.245 277.542,339.891 277.613,339.275 276.871 C 337.611 274.866,333.537 274.914,333.772 276.936 C 333.878 277.845,334.167 278.023,336.852 278.824 C 341.709 280.273,343.335 282.155,342.801 285.713 C 342.080 290.522,333.902 292.325,329.679 288.606 C 326.325 285.653,329.292 282.415,332.798 285.202 C 334.828 286.814,338.333 286.731,338.333 285.071 C 338.333 284.099,338.133 283.963,335.312 283.006 C 330.143 281.254,328.740 279.784,328.992 276.386 C 329.350 271.539,335.573 269.513,340.586 272.611 M86.219 271.459 C 86.887 271.651,87.947 272.240,88.575 272.769 C 96.886 279.762,89.918 294.285,80.447 289.709 L 78.889 288.956 78.883 292.163 C 78.880 293.927,78.755 295.554,78.605 295.778 C 77.697 297.138,75.136 297.217,74.435 295.908 C 73.574 294.299,73.993 272.692,74.897 272.058 C 76.031 271.264,77.262 271.336,78.178 272.252 C 78.874 272.948,79.010 272.968,79.575 272.457 C 80.985 271.180,83.782 270.760,86.219 271.459 M105.237 271.837 C 107.136 272.559,107.155 272.559,108.168 271.837 C 111.421 269.521,112.222 271.280,112.222 280.741 C 112.222 290.029,111.172 292.368,108.232 289.628 L 107.435 288.886 105.979 289.645 C 98.818 293.378,91.460 285.367,94.495 277.144 C 96.296 272.262,100.669 270.102,105.237 271.837 M261.207 272.154 C 262.876 273.822,260.975 276.339,258.539 275.689 C 255.020 274.750,254.074 276.435,254.074 283.643 C 254.074 290.007,252.729 292.019,250.116 289.565 C 248.813 288.340,248.772 273.445,250.070 272.237 C 251.095 271.282,252.368 271.271,253.243 272.210 C 253.917 272.934,253.935 272.932,255.757 271.998 C 257.887 270.906,260.021 270.967,261.207 272.154 M303.673 272.021 C 307.421 273.959,308.132 290.370,304.468 290.370 C 302.285 290.370,301.852 289.228,301.852 283.473 C 301.852 277.130,301.527 276.099,299.449 275.856 C 295.912 275.443,295.185 276.756,295.185 283.559 C 295.185 289.862,293.509 292.282,291.080 289.488 C 290.077 288.334,289.965 273.822,290.948 272.321 C 291.713 271.154,293.461 271.197,294.515 272.408 C 295.306 273.319,295.334 273.323,296.086 272.641 C 297.822 271.066,301.280 270.784,303.673 272.021 M206.667 272.222 C 207.936 273.491,207.795 288.396,206.502 289.610 C 205.846 290.227,205.343 290.397,204.676 290.230 C 202.643 289.720,202.593 289.494,202.593 280.899 C 202.593 272.174,202.770 271.481,205.000 271.481 C 205.509 271.481,206.259 271.815,206.667 272.222 M245.013 272.080 L 245.926 272.678 245.926 280.756 L 245.926 288.835 244.950 289.603 C 241.821 292.064,241.111 290.428,241.111 280.747 C 241.111 271.287,241.724 269.925,245.013 272.080 M286.226 272.237 C 287.482 273.406,287.486 288.178,286.232 289.513 C 285.198 290.614,284.051 290.602,282.998 289.481 C 281.740 288.142,281.745 273.172,283.003 272.130 C 284.040 271.271,285.232 271.310,286.226 272.237 M227.685 276.759 C 226.081 280.690,225.971 280.370,228.925 280.370 C 231.752 280.370,231.919 280.126,230.573 277.963 C 230.320 277.556,229.907 276.597,229.657 275.833 C 229.039 273.948,228.783 274.068,227.685 276.759 M81.296 276.254 C 77.669 277.924,78.134 284.457,81.975 285.787 C 84.078 286.515,87.037 284.947,87.037 283.105 C 87.037 282.644,87.222 282.152,87.447 282.012 C 88.667 281.259,86.584 276.598,84.740 275.955 C 83.240 275.432,83.044 275.449,81.296 276.254 M121.775 276.148 C 118.086 278.081,118.799 284.785,122.809 285.882 C 124.798 286.427,127.778 284.872,127.778 283.291 C 127.778 282.931,127.944 282.533,128.148 282.407 C 129.784 281.396,127.245 276.005,125.074 275.879 C 124.626 275.853,123.909 275.793,123.481 275.747 C 123.053 275.700,122.286 275.881,121.775 276.148 M162.778 275.817 C 161.815 276.073,160.178 277.709,160.532 278.061 C 160.823 278.351,167.334 278.345,167.624 278.055 C 168.675 277.004,164.887 275.254,162.778 275.817 M315.547 276.412 C 313.474 277.724,314.200 278.271,318.081 278.321 C 321.878 278.370,322.166 278.248,321.169 277.017 C 320.164 275.775,317.077 275.443,315.547 276.412 M100.285 276.704 C 97.404 278.854,98.623 285.812,101.908 285.967 C 104.873 286.107,106.047 285.387,106.864 282.928 C 108.516 277.952,104.150 273.820,100.285 276.704 " stroke="none" fill="#043b73" fill-rule="evenodd"></path><path id="path2" d="M133.879 94.907 L 131.296 97.593 133.981 95.010 C 136.475 92.611,136.836 92.222,136.564 92.222 C 136.508 92.222,135.299 93.431,133.879 94.907 M255.926 95.671 C 255.926 95.735,256.468 96.277,257.130 96.875 L 258.333 97.963 257.246 96.759 C 256.232 95.637,255.926 95.385,255.926 95.671 M205.648 138.403 C 206.005 138.497,206.588 138.497,206.944 138.403 C 207.301 138.310,207.009 138.234,206.296 138.234 C 205.583 138.234,205.292 138.310,205.648 138.403 M168.234 148.148 C 168.234 148.861,168.310 149.153,168.403 148.796 C 168.497 148.440,168.497 147.856,168.403 147.500 C 168.310 147.144,168.234 147.435,168.234 148.148 M283.084 158.704 C 283.086 160.130,283.153 160.668,283.233 159.899 C 283.313 159.131,283.312 157.964,283.230 157.307 C 283.148 156.649,283.083 157.278,283.084 158.704 M200.185 158.889 C 200.981 159.704,201.715 160.370,201.817 160.370 C 201.919 160.370,201.351 159.704,200.556 158.889 C 199.760 158.074,199.026 157.407,198.924 157.407 C 198.822 157.407,199.390 158.074,200.185 158.889 M131.852 219.731 C 131.852 219.788,133.144 221.079,134.722 222.602 L 137.593 225.370 134.824 222.500 C 132.253 219.834,131.852 219.461,131.852 219.731 M193.431 243.969 C 193.994 244.055,194.827 244.052,195.283 243.964 C 195.738 243.877,195.278 243.807,194.259 243.810 C 193.241 243.812,192.868 243.884,193.431 243.969 M200.282 243.966 C 200.743 244.054,201.409 244.051,201.764 243.958 C 202.118 243.865,201.741 243.793,200.926 243.797 C 200.111 243.801,199.821 243.877,200.282 243.966 M192.685 248.043 C 193.245 248.128,194.162 248.128,194.722 248.043 C 195.282 247.958,194.824 247.889,193.704 247.889 C 192.583 247.889,192.125 247.958,192.685 248.043 M200.648 248.039 C 201.106 248.127,201.856 248.127,202.315 248.039 C 202.773 247.951,202.398 247.879,201.481 247.879 C 200.565 247.879,200.190 247.951,200.648 248.039 M191.197 270.741 C 191.197 271.454,191.273 271.745,191.366 271.389 C 191.460 271.032,191.460 270.449,191.366 270.093 C 191.273 269.736,191.197 270.028,191.197 270.741 M195.271 270.741 C 195.271 271.454,195.347 271.745,195.440 271.389 C 195.534 271.032,195.534 270.449,195.440 270.093 C 195.347 269.736,195.271 270.028,195.271 270.741 M132.751 281.296 C 132.752 285.981,132.805 287.847,132.869 285.442 C 132.934 283.037,132.934 279.204,132.869 276.924 C 132.804 274.643,132.751 276.611,132.751 281.296 M191.109 280.295 L 191.292 284.630 191.400 280.587 C 191.459 278.364,191.377 276.413,191.217 276.252 C 191.057 276.092,191.008 277.911,191.109 280.295 M195.325 281.111 C 195.325 283.454,195.385 284.412,195.459 283.241 C 195.532 282.069,195.532 280.153,195.459 278.981 C 195.385 277.810,195.325 278.769,195.325 281.111 " stroke="none" fill="#605e46" fill-rule="evenodd"></path><path id="path3" d="M287.152 156.111 C 287.154 157.333,287.223 157.789,287.305 157.123 C 287.388 156.457,287.386 155.457,287.302 154.901 C 287.217 154.344,287.150 154.889,287.152 156.111 M287.143 160.926 C 287.146 161.944,287.218 162.317,287.303 161.754 C 287.388 161.191,287.386 160.358,287.298 159.902 C 287.210 159.447,287.140 159.907,287.143 160.926 M221.273 191.944 L 220.185 193.148 221.389 192.060 C 222.511 191.046,222.763 190.741,222.477 190.741 C 222.413 190.741,221.871 191.282,221.273 191.944 M218.310 194.907 L 217.222 196.111 218.426 195.023 C 219.088 194.425,219.630 193.883,219.630 193.820 C 219.630 193.533,219.324 193.785,218.310 194.907 M215.347 197.870 L 214.259 199.074 215.463 197.986 C 216.585 196.972,216.837 196.667,216.551 196.667 C 216.487 196.667,215.945 197.208,215.347 197.870 M212.384 200.833 L 211.296 202.037 212.500 200.949 C 213.162 200.351,213.704 199.809,213.704 199.746 C 213.704 199.459,213.398 199.711,212.384 200.833 M209.421 203.796 L 208.333 205.000 209.537 203.912 C 210.659 202.898,210.911 202.593,210.625 202.593 C 210.561 202.593,210.019 203.134,209.421 203.796 M282.308 267.778 C 282.308 268.491,282.384 268.782,282.478 268.426 C 282.571 268.069,282.571 267.486,282.478 267.130 C 282.384 266.773,282.308 267.065,282.308 267.778 M268.675 277.963 C 268.676 282.241,268.730 283.940,268.795 281.739 C 268.861 279.538,268.860 276.038,268.795 273.961 C 268.729 271.884,268.675 273.685,268.675 277.963 M290.527 280.926 C 290.527 285.204,290.581 286.903,290.647 284.702 C 290.713 282.501,290.712 279.001,290.646 276.924 C 290.581 274.847,290.527 276.648,290.527 280.926 M74.236 283.704 C 74.236 289.102,74.288 291.310,74.351 288.611 C 74.414 285.912,74.414 281.495,74.351 278.796 C 74.288 276.097,74.236 278.306,74.236 283.704 M182.090 276.211 C 181.993 276.367,182.567 276.433,183.364 276.357 C 184.162 276.281,184.815 276.153,184.815 276.072 C 184.815 275.796,182.266 275.926,182.090 276.211 M196.578 276.188 C 197.039 276.276,197.706 276.273,198.060 276.180 C 198.414 276.088,198.037 276.015,197.222 276.019 C 196.407 276.023,196.118 276.099,196.578 276.188 M152.370 283.148 C 152.371 286.204,152.428 287.404,152.498 285.816 C 152.567 284.228,152.567 281.728,152.497 280.261 C 152.427 278.793,152.370 280.093,152.370 283.148 M313.855 278.231 C 313.925 278.579,315.008 278.704,317.963 278.704 C 320.918 278.704,322.001 278.579,322.071 278.231 C 322.124 277.972,322.082 277.930,321.978 278.139 C 321.868 278.362,320.207 278.519,317.963 278.519 C 315.719 278.519,314.058 278.362,313.948 278.139 C 313.844 277.930,313.802 277.972,313.855 278.231 M161.944 278.791 C 162.912 278.867,164.495 278.867,165.463 278.791 C 166.431 278.714,165.639 278.652,163.704 278.652 C 161.769 278.652,160.977 278.714,161.944 278.791 " stroke="none" fill="#3f442f" fill-rule="evenodd"></path><path id="path4" d="M205.093 69.150 C 205.551 69.239,206.301 69.239,206.759 69.150 C 207.218 69.062,206.843 68.990,205.926 68.990 C 205.009 68.990,204.634 69.062,205.093 69.150 M195.833 72.493 C 196.699 72.571,198.116 72.571,198.981 72.493 C 199.847 72.415,199.139 72.352,197.407 72.352 C 195.676 72.352,194.968 72.415,195.833 72.493 M204.167 72.848 C 204.523 72.941,205.106 72.941,205.463 72.848 C 205.819 72.755,205.528 72.679,204.815 72.679 C 204.102 72.679,203.810 72.755,204.167 72.848 M158.056 77.619 C 156.620 78.398,156.782 78.667,158.241 77.925 C 159.637 77.215,159.884 77.031,159.414 77.052 C 159.227 77.060,158.616 77.315,158.056 77.619 M247.407 83.838 C 247.407 83.940,247.907 84.380,248.519 84.815 C 249.130 85.250,249.630 85.523,249.630 85.421 C 249.630 85.319,249.130 84.880,248.519 84.444 C 247.907 84.009,247.407 83.737,247.407 83.838 M141.643 93.056 L 140.556 94.259 141.759 93.171 C 142.881 92.157,143.133 91.852,142.847 91.852 C 142.783 91.852,142.242 92.394,141.643 93.056 M261.852 96.042 C 261.852 96.106,262.394 96.647,263.056 97.246 L 264.259 98.333 263.171 97.130 C 262.157 96.008,261.852 95.756,261.852 96.042 M194.727 101.743 C 195.187 101.832,195.854 101.829,196.208 101.736 C 196.562 101.643,196.185 101.571,195.370 101.575 C 194.556 101.579,194.266 101.655,194.727 101.743 M200.282 101.743 C 200.743 101.832,201.409 101.829,201.764 101.736 C 202.118 101.643,201.741 101.571,200.926 101.575 C 200.111 101.579,199.821 101.655,200.282 101.743 M230.741 115.000 C 232.053 116.324,233.210 117.407,233.312 117.407 C 233.414 117.407,232.423 116.324,231.111 115.000 C 229.799 113.676,228.642 112.593,228.540 112.593 C 228.438 112.593,229.428 113.676,230.741 115.000 M176.840 128.981 L 174.630 131.296 176.944 129.086 C 179.095 127.032,179.429 126.667,179.155 126.667 C 179.098 126.667,178.056 127.708,176.840 128.981 M154.875 129.460 C 154.254 130.822,154.373 131.113,155.044 129.875 C 155.357 129.296,155.544 128.754,155.460 128.669 C 155.375 128.585,155.112 128.941,154.875 129.460 M195.084 138.786 C 195.742 138.868,196.908 138.869,197.677 138.789 C 198.445 138.709,197.907 138.642,196.481 138.640 C 195.056 138.638,194.427 138.704,195.084 138.786 M218.745 142.407 C 219.049 143.769,219.261 144.065,219.254 143.117 C 219.250 142.727,219.079 142.157,218.872 141.852 C 218.597 141.446,218.563 141.596,218.745 142.407 M151.212 143.704 C 151.212 144.620,151.284 144.995,151.372 144.537 C 151.461 144.079,151.461 143.329,151.372 142.870 C 151.284 142.412,151.212 142.787,151.212 143.704 M244.926 145.556 C 244.926 146.676,244.995 147.134,245.080 146.574 C 245.165 146.014,245.165 145.097,245.080 144.537 C 244.995 143.977,244.926 144.435,244.926 145.556 M186.012 148.519 C 186.012 149.231,186.088 149.523,186.181 149.167 C 186.274 148.810,186.274 148.227,186.181 147.870 C 186.088 147.514,186.012 147.806,186.012 148.519 M244.926 151.481 C 244.926 152.602,244.995 153.060,245.080 152.500 C 245.165 151.940,245.165 151.023,245.080 150.463 C 244.995 149.903,244.926 150.361,244.926 151.481 M151.205 153.889 C 151.209 154.704,151.284 154.993,151.373 154.533 C 151.462 154.072,151.458 153.405,151.366 153.051 C 151.273 152.697,151.200 153.074,151.205 153.889 M205.926 153.889 C 206.617 154.602,207.266 155.185,207.368 155.185 C 207.469 155.185,206.987 154.602,206.296 153.889 C 205.605 153.176,204.957 152.593,204.855 152.593 C 204.753 152.593,205.235 153.176,205.926 153.889 M283.074 154.444 C 283.074 155.565,283.143 156.023,283.228 155.463 C 283.313 154.903,283.313 153.986,283.228 153.426 C 283.143 152.866,283.074 153.324,283.074 154.444 M185.271 154.444 C 185.271 155.157,185.347 155.449,185.440 155.093 C 185.534 154.736,185.534 154.153,185.440 153.796 C 185.347 153.440,185.271 153.731,185.271 154.444 M111.624 158.519 C 111.624 161.065,111.683 162.106,111.756 160.833 C 111.828 159.560,111.828 157.477,111.756 156.204 C 111.683 154.931,111.624 155.972,111.624 158.519 M196.173 155.062 C 196.037 155.198,195.928 155.489,195.932 155.710 C 195.935 155.931,196.093 155.865,196.282 155.565 C 196.573 155.105,196.791 155.163,197.666 155.936 L 198.704 156.852 197.806 155.833 C 196.875 154.777,196.591 154.643,196.173 155.062 M226.878 157.619 C 226.742 158.162,226.702 158.677,226.789 158.765 C 226.877 158.852,227.060 158.479,227.196 157.937 C 227.332 157.394,227.372 156.878,227.285 156.791 C 227.197 156.704,227.015 157.076,226.878 157.619 M151.858 158.364 C 151.861 158.755,152.032 159.324,152.239 159.630 C 152.514 160.035,152.548 159.886,152.367 159.074 C 152.062 157.712,151.850 157.417,151.858 158.364 M283.056 162.407 C 283.060 163.222,283.136 163.512,283.225 163.051 C 283.314 162.591,283.310 161.924,283.217 161.570 C 283.125 161.216,283.052 161.593,283.056 162.407 M231.462 181.759 L 230.185 183.148 231.574 181.872 C 232.867 180.684,233.133 180.370,232.850 180.370 C 232.789 180.370,232.164 180.995,231.462 181.759 M167.222 184.444 C 168.018 185.259,168.752 185.926,168.854 185.926 C 168.956 185.926,168.388 185.259,167.593 184.444 C 166.797 183.630,166.063 182.963,165.961 182.963 C 165.859 182.963,166.427 183.630,167.222 184.444 M226.097 186.759 L 224.259 188.704 226.204 186.866 C 228.011 185.158,228.318 184.815,228.042 184.815 C 227.983 184.815,227.108 185.690,226.097 186.759 M172.407 189.630 C 173.617 190.852,174.690 191.852,174.792 191.852 C 174.893 191.852,173.987 190.852,172.778 189.630 C 171.568 188.407,170.495 187.407,170.394 187.407 C 170.292 187.407,171.198 188.407,172.407 189.630 M216.292 196.574 L 210.556 202.407 216.389 196.671 C 221.808 191.342,222.390 190.741,222.125 190.741 C 222.072 190.741,219.447 193.366,216.292 196.574 M184.259 201.481 C 188.737 205.963,192.484 209.630,192.586 209.630 C 192.688 209.630,189.108 205.963,184.630 201.481 C 180.152 197.000,176.404 193.333,176.303 193.333 C 176.201 193.333,179.781 197.000,184.259 201.481 M208.319 204.537 L 206.481 206.481 208.426 204.644 C 209.495 203.633,210.370 202.758,210.370 202.699 C 210.370 202.423,210.027 202.730,208.319 204.537 M202.754 210.093 L 201.667 211.296 202.870 210.208 C 203.532 209.610,204.074 209.069,204.074 209.005 C 204.074 208.719,203.768 208.971,202.754 210.093 M195.370 212.593 C 196.580 213.815,197.653 214.815,197.755 214.815 C 197.856 214.815,196.950 213.815,195.741 212.593 C 194.531 211.370,193.458 210.370,193.357 210.370 C 193.255 210.370,194.161 211.370,195.370 212.593 M199.980 212.870 L 198.704 214.259 200.093 212.983 C 201.385 211.795,201.652 211.481,201.369 211.481 C 201.307 211.481,200.682 212.106,199.980 212.870 M260.912 221.574 L 259.074 223.519 261.019 221.681 C 262.825 219.973,263.133 219.630,262.856 219.630 C 262.798 219.630,261.923 220.505,260.912 221.574 M251.481 229.675 C 250.191 230.806,250.190 230.808,251.378 230.018 C 252.034 229.582,252.668 229.066,252.788 228.872 C 253.146 228.294,252.849 228.476,251.481 229.675 M158.148 234.627 C 158.148 234.878,161.157 236.374,161.324 236.207 C 161.402 236.129,160.719 235.703,159.807 235.260 C 158.894 234.817,158.148 234.532,158.148 234.627 M238.796 237.619 C 237.412 238.370,237.496 238.683,238.889 237.963 C 239.500 237.647,240.000 237.309,240.000 237.213 C 240.000 236.974,239.960 236.988,238.796 237.619 M190.652 243.966 C 191.113 244.054,191.780 244.051,192.134 243.958 C 192.488 243.865,192.111 243.793,191.296 243.797 C 190.481 243.801,190.192 243.877,190.652 243.966 M202.870 243.965 C 203.329 244.053,204.079 244.053,204.537 243.965 C 204.995 243.877,204.620 243.805,203.704 243.805 C 202.787 243.805,202.412 243.877,202.870 243.965 M203.986 247.669 C 204.447 247.758,205.113 247.755,205.467 247.662 C 205.821 247.569,205.444 247.497,204.630 247.501 C 203.815 247.505,203.525 247.581,203.986 247.669 M196.574 248.046 C 197.236 248.128,198.319 248.128,198.981 248.046 C 199.644 247.964,199.102 247.896,197.778 247.896 C 196.454 247.896,195.912 247.964,196.574 248.046 M137.201 277.407 C 137.201 283.620,137.252 286.162,137.314 283.056 C 137.376 279.949,137.376 274.866,137.314 271.759 C 137.252 268.653,137.201 271.194,137.201 277.407 M54.175 272.963 C 54.175 273.880,54.247 274.255,54.335 273.796 C 54.424 273.338,54.424 272.588,54.335 272.130 C 54.247 271.671,54.175 272.046,54.175 272.963 M254.448 273.144 C 254.196 273.447,253.842 273.604,253.662 273.493 C 253.481 273.381,253.333 273.466,253.333 273.682 C 253.333 274.295,253.896 274.144,254.630 273.333 C 254.998 272.926,255.211 272.593,255.103 272.593 C 254.994 272.593,254.700 272.841,254.448 273.144 M286.296 280.666 L 286.480 288.704 286.581 280.952 C 286.637 276.689,286.554 273.072,286.397 272.914 C 286.240 272.757,286.194 276.245,286.296 280.666 M111.637 280.556 C 111.637 284.630,111.691 286.347,111.757 284.372 C 111.824 282.396,111.824 279.063,111.758 276.964 C 111.692 274.865,111.637 276.481,111.637 280.556 M249.716 274.815 C 249.716 275.528,249.792 275.819,249.885 275.463 C 249.978 275.106,249.978 274.523,249.885 274.167 C 249.792 273.810,249.716 274.102,249.716 274.815 M203.118 281.111 C 203.118 285.083,203.172 286.708,203.239 284.722 C 203.306 282.736,203.306 279.486,203.239 277.500 C 203.172 275.514,203.118 277.139,203.118 281.111 M249.768 280.556 C 249.769 282.796,249.830 283.665,249.904 282.486 C 249.977 281.308,249.977 279.474,249.902 278.412 C 249.828 277.350,249.767 278.315,249.768 280.556 M148.295 282.963 C 148.295 285.917,148.353 287.125,148.423 285.648 C 148.493 284.171,148.493 281.755,148.423 280.278 C 148.353 278.801,148.295 280.009,148.295 282.963 M294.591 283.148 C 294.591 286.000,294.649 287.118,294.720 285.632 C 294.790 284.146,294.790 281.813,294.719 280.447 C 294.648 279.081,294.590 280.296,294.591 283.148 M155.641 281.481 C 155.641 282.194,155.718 282.486,155.811 282.130 C 155.904 281.773,155.904 281.190,155.811 280.833 C 155.718 280.477,155.641 280.769,155.641 281.481 M70.827 282.963 C 70.827 283.676,70.903 283.968,70.996 283.611 C 71.089 283.255,71.089 282.671,70.996 282.315 C 70.903 281.958,70.827 282.250,70.827 282.963 M335.463 286.928 C 335.921 287.016,336.671 287.016,337.130 286.928 C 337.588 286.840,337.213 286.768,336.296 286.768 C 335.380 286.768,335.005 286.840,335.463 286.928 M78.273 291.852 C 78.273 293.380,78.338 294.005,78.418 293.241 C 78.498 292.477,78.498 291.227,78.418 290.463 C 78.338 289.699,78.273 290.324,78.273 291.852 M61.574 290.255 C 61.931 290.348,62.514 290.348,62.870 290.255 C 63.227 290.162,62.935 290.086,62.222 290.086 C 61.509 290.086,61.218 290.162,61.574 290.255 M164.167 290.255 C 164.523 290.348,165.106 290.348,165.463 290.255 C 165.819 290.162,165.528 290.086,164.815 290.086 C 164.102 290.086,163.810 290.162,164.167 290.255 " stroke="none" fill="#856c3b" fill-rule="evenodd"></path><path id="path5" d="M194.926 68.424 C 196.718 68.492,199.551 68.492,201.222 68.423 C 202.892 68.355,201.426 68.299,197.963 68.300 C 194.500 68.300,193.133 68.356,194.926 68.424 M187.870 68.774 C 188.227 68.867,188.810 68.867,189.167 68.774 C 189.523 68.681,189.231 68.604,188.519 68.604 C 187.806 68.604,187.514 68.681,187.870 68.774 M212.407 69.630 C 213.974 70.028,215.319 70.028,214.074 69.630 C 213.565 69.467,212.731 69.336,212.222 69.340 C 211.391 69.346,211.409 69.376,212.407 69.630 M143.690 85.953 L 142.407 87.090 143.796 86.094 C 145.024 85.213,145.423 84.815,145.079 84.815 C 145.020 84.815,144.395 85.327,143.690 85.953 M250.741 85.672 C 250.741 85.763,251.353 86.305,252.100 86.875 C 252.848 87.445,253.343 87.723,253.200 87.492 C 252.907 87.018,250.741 85.414,250.741 85.672 M254.815 89.074 C 255.506 89.787,256.155 90.370,256.256 90.370 C 256.358 90.370,255.876 89.787,255.185 89.074 C 254.494 88.361,253.845 87.778,253.744 87.778 C 253.642 87.778,254.124 88.361,254.815 89.074 M137.778 90.804 C 136.807 91.685,136.575 92.005,137.222 91.569 C 138.245 90.880,139.943 89.238,139.594 89.275 C 139.512 89.284,138.694 89.972,137.778 90.804 M258.495 92.307 C 259.399 93.271,260.219 93.979,260.316 93.881 C 260.414 93.784,260.422 93.662,260.334 93.611 C 260.246 93.560,259.426 92.852,258.513 92.037 L 256.852 90.556 258.495 92.307 M132.768 95.648 L 130.185 98.333 132.870 95.751 C 135.364 93.352,135.725 92.963,135.453 92.963 C 135.397 92.963,134.188 94.171,132.768 95.648 M140.727 94.471 L 139.444 95.609 140.833 94.612 C 142.061 93.732,142.460 93.333,142.116 93.333 C 142.057 93.333,141.432 93.845,140.727 94.471 M263.124 97.074 C 264.536 98.581,266.030 100.148,266.443 100.556 L 267.195 101.296 266.472 100.370 C 265.209 98.750,261.699 95.013,261.117 94.666 C 260.808 94.483,261.711 95.566,263.124 97.074 M257.222 97.407 C 258.018 98.222,258.752 98.889,258.854 98.889 C 258.956 98.889,258.388 98.222,257.593 97.407 C 256.797 96.593,256.063 95.926,255.961 95.926 C 255.859 95.926,256.427 96.593,257.222 97.407 M133.776 101.221 C 133.125 101.893,132.593 102.572,132.593 102.729 C 132.593 103.015,132.720 102.894,134.416 101.002 C 135.684 99.587,135.199 99.754,133.776 101.221 M195.262 101.385 C 196.628 101.456,198.961 101.457,200.447 101.386 C 201.933 101.316,200.815 101.258,197.963 101.257 C 195.111 101.257,193.895 101.314,195.262 101.385 M260.741 101.227 C 260.741 101.291,261.282 101.832,261.944 102.431 L 263.148 103.519 262.060 102.315 C 261.046 101.193,260.741 100.941,260.741 101.227 M268.503 103.241 C 269.191 104.106,269.820 104.815,269.902 104.815 C 270.164 104.815,268.576 102.731,267.902 102.189 C 267.545 101.902,267.815 102.375,268.503 103.241 M264.460 105.624 C 265.113 106.578,266.133 107.911,266.728 108.587 C 267.621 109.601,267.583 109.493,266.511 107.963 C 265.798 106.944,264.777 105.611,264.244 105.000 C 263.503 104.151,263.554 104.298,264.460 105.624 M171.261 109.317 L 170.556 110.115 171.574 109.459 C 172.624 108.783,172.823 108.519,172.280 108.519 C 172.107 108.519,171.649 108.878,171.261 109.317 M274.630 112.222 C 274.946 112.833,275.288 113.333,275.389 113.333 C 275.491 113.333,275.316 112.833,275.000 112.222 C 274.684 111.611,274.342 111.111,274.240 111.111 C 274.138 111.111,274.314 111.611,274.630 112.222 M165.926 113.519 C 165.026 114.435,164.374 115.185,164.475 115.185 C 164.577 115.185,165.397 114.435,166.296 113.519 C 167.196 112.602,167.849 111.852,167.747 111.852 C 167.645 111.852,166.826 112.602,165.926 113.519 M162.202 117.315 L 160.926 118.704 162.315 117.427 C 163.608 116.239,163.874 115.926,163.591 115.926 C 163.529 115.926,162.904 116.551,162.202 117.315 M233.333 117.153 C 233.333 117.217,233.875 117.758,234.537 118.357 L 235.741 119.444 234.653 118.241 C 233.639 117.119,233.333 116.867,233.333 117.153 M194.880 120.693 C 194.603 120.868,195.650 120.934,197.288 120.843 C 201.169 120.629,201.552 120.434,198.148 120.405 C 196.620 120.392,195.150 120.522,194.880 120.693 M114.055 123.940 C 113.850 124.478,113.752 124.986,113.836 125.070 C 113.920 125.154,114.166 124.714,114.382 124.093 C 114.864 122.711,114.573 122.576,114.055 123.940 M184.259 123.879 C 183.444 124.381,182.893 124.797,183.034 124.803 C 183.355 124.818,185.926 123.314,185.926 123.112 C 185.926 122.870,185.811 122.923,184.259 123.879 M185.185 131.546 C 185.287 131.636,186.370 132.612,187.593 133.714 L 189.815 135.717 188.148 133.941 C 187.231 132.964,186.148 131.989,185.741 131.773 C 185.333 131.558,185.083 131.455,185.185 131.546 M208.622 138.050 C 209.596 138.127,211.096 138.126,211.956 138.048 C 212.815 137.971,212.019 137.908,210.185 137.909 C 208.352 137.910,207.649 137.974,208.622 138.050 M193.056 138.403 C 193.412 138.497,193.995 138.497,194.352 138.403 C 194.708 138.310,194.417 138.234,193.704 138.234 C 192.991 138.234,192.699 138.310,193.056 138.403 M197.327 138.422 C 198.404 138.497,200.070 138.496,201.031 138.420 C 201.992 138.344,201.111 138.282,199.074 138.283 C 197.037 138.284,196.251 138.347,197.327 138.422 M217.407 140.116 C 217.407 140.180,217.949 140.721,218.611 141.320 L 219.815 142.407 218.727 141.204 C 217.713 140.082,217.407 139.830,217.407 140.116 M285.816 141.667 C 285.934 142.685,286.090 143.588,286.163 143.673 C 286.440 143.994,286.230 141.263,285.923 140.556 C 285.717 140.079,285.679 140.475,285.816 141.667 M150.827 142.222 C 150.827 142.935,150.903 143.227,150.996 142.870 C 151.089 142.514,151.089 141.931,150.996 141.574 C 150.903 141.218,150.827 141.509,150.827 142.222 M281.117 142.068 C 281.120 142.662,281.282 143.398,281.477 143.704 C 281.718 144.082,281.758 143.787,281.604 142.778 C 281.323 140.947,281.109 140.635,281.117 142.068 M245.271 143.704 C 245.271 144.417,245.347 144.708,245.440 144.352 C 245.534 143.995,245.534 143.412,245.440 143.056 C 245.347 142.699,245.271 142.991,245.271 143.704 M185.882 144.525 C 186.052 145.554,186.105 145.606,186.221 144.865 C 186.297 144.383,186.206 143.836,186.020 143.649 C 185.814 143.444,185.760 143.789,185.882 144.525 M286.573 146.852 C 286.681 148.278,286.830 149.514,286.904 149.599 C 287.161 149.897,286.960 146.101,286.670 145.185 C 286.499 144.647,286.458 145.345,286.573 146.852 M150.513 149.259 C 150.513 151.806,150.572 152.847,150.645 151.574 C 150.717 150.301,150.717 148.218,150.645 146.944 C 150.572 145.671,150.513 146.713,150.513 149.259 M281.953 146.296 C 281.953 147.213,282.025 147.588,282.113 147.130 C 282.202 146.671,282.202 145.921,282.113 145.463 C 282.025 145.005,281.953 145.380,281.953 146.296 M112.679 147.037 C 112.679 147.750,112.755 148.042,112.848 147.685 C 112.941 147.329,112.941 146.745,112.848 146.389 C 112.755 146.032,112.679 146.324,112.679 147.037 M107.871 149.074 C 107.875 149.889,107.951 150.179,108.040 149.718 C 108.128 149.257,108.125 148.591,108.032 148.236 C 107.940 147.882,107.867 148.259,107.871 149.074 M227.526 150.000 C 227.526 151.324,227.593 151.866,227.675 151.204 C 227.757 150.542,227.757 149.458,227.675 148.796 C 227.593 148.134,227.526 148.676,227.526 150.000 M282.308 149.259 C 282.308 149.972,282.384 150.264,282.478 149.907 C 282.571 149.551,282.571 148.968,282.478 148.611 C 282.384 148.255,282.308 148.546,282.308 149.259 M204.444 151.667 C 205.551 152.787,206.513 153.704,206.583 153.704 C 206.885 153.704,206.091 152.776,204.767 151.579 C 203.982 150.870,203.431 150.141,203.543 149.960 C 203.656 149.778,203.452 149.630,203.090 149.630 C 202.625 149.630,203.020 150.224,204.444 151.667 M287.143 152.407 C 287.146 153.426,287.218 153.799,287.303 153.236 C 287.388 152.673,287.386 151.839,287.298 151.384 C 287.210 150.928,287.140 151.389,287.143 152.407 M107.360 154.907 C 107.283 156.588,107.316 159.546,107.434 161.481 C 107.611 164.401,107.659 163.880,107.713 158.426 C 107.781 151.529,107.599 149.709,107.360 154.907 M245.271 152.963 C 245.271 153.676,245.347 153.968,245.440 153.611 C 245.534 153.255,245.534 152.671,245.440 152.315 C 245.347 151.958,245.271 152.250,245.271 152.963 M282.746 158.333 C 282.746 162.000,282.801 163.450,282.869 161.555 C 282.936 159.661,282.936 156.661,282.868 154.889 C 282.800 153.117,282.745 154.667,282.746 158.333 M112.002 158.333 C 112.002 161.593,112.059 162.876,112.128 161.186 C 112.196 159.496,112.196 156.829,112.127 155.260 C 112.058 153.691,112.001 155.074,112.002 158.333 M213.796 155.070 C 214.153 155.163,214.736 155.163,215.093 155.070 C 215.449 154.977,215.157 154.901,214.444 154.901 C 213.731 154.901,213.440 154.977,213.796 155.070 M198.873 157.870 C 199.782 158.838,200.573 159.630,200.633 159.630 C 200.911 159.630,200.617 159.297,198.981 157.762 L 197.222 156.111 198.873 157.870 M287.501 158.704 C 287.505 159.519,287.581 159.808,287.669 159.348 C 287.758 158.887,287.755 158.220,287.662 157.866 C 287.569 157.512,287.497 157.889,287.501 158.704 M215.926 162.963 C 215.182 163.201,215.145 163.262,215.741 163.270 C 216.148 163.276,216.815 163.138,217.222 162.963 C 218.166 162.557,217.192 162.557,215.926 162.963 M287.138 164.444 C 287.138 165.361,287.210 165.736,287.298 165.278 C 287.387 164.819,287.387 164.069,287.298 163.611 C 287.210 163.153,287.138 163.528,287.138 164.444 M282.316 167.222 C 282.320 168.037,282.396 168.327,282.484 167.866 C 282.573 167.405,282.569 166.739,282.477 166.385 C 282.384 166.030,282.312 166.407,282.316 167.222 M107.884 167.963 C 107.886 168.981,107.958 169.354,108.044 168.791 C 108.129 168.228,108.126 167.395,108.038 166.939 C 107.951 166.484,107.881 166.944,107.884 167.963 M174.811 168.513 C 175.454 169.325,176.173 170.109,176.410 170.255 C 176.646 170.401,176.197 169.737,175.412 168.779 C 174.627 167.821,173.908 167.037,173.813 167.037 C 173.719 167.037,174.168 167.701,174.811 168.513 M211.481 167.407 L 210.185 167.680 211.367 167.729 C 212.017 167.756,212.652 167.611,212.778 167.407 C 212.904 167.204,212.955 167.059,212.892 167.086 C 212.829 167.113,212.194 167.257,211.481 167.407 M286.760 168.704 C 286.764 169.519,286.840 169.808,286.929 169.348 C 287.017 168.887,287.014 168.220,286.921 167.866 C 286.828 167.512,286.756 167.889,286.760 168.704 M112.679 169.630 C 112.679 170.343,112.755 170.634,112.848 170.278 C 112.941 169.921,112.941 169.338,112.848 168.981 C 112.755 168.625,112.679 168.917,112.679 169.630 M281.945 170.556 C 281.949 171.370,282.025 171.660,282.114 171.199 C 282.202 170.739,282.199 170.072,282.106 169.718 C 282.014 169.364,281.941 169.741,281.945 170.556 M218.611 171.101 C 217.231 172.382,216.774 172.963,217.145 172.963 C 217.205 172.963,217.989 172.213,218.889 171.296 C 220.906 169.241,220.739 169.124,218.611 171.101 M178.148 172.037 C 178.839 172.750,179.488 173.333,179.590 173.333 C 179.692 173.333,179.210 172.750,178.519 172.037 C 177.827 171.324,177.179 170.741,177.077 170.741 C 176.975 170.741,177.457 171.324,178.148 172.037 M285.046 178.565 C 284.738 180.109,285.037 180.408,285.370 178.889 C 285.511 178.249,285.549 177.648,285.454 177.553 C 285.360 177.459,285.176 177.914,285.046 178.565 M197.135 179.895 C 197.698 179.981,198.531 179.978,198.987 179.890 C 199.442 179.802,198.981 179.733,197.963 179.736 C 196.944 179.738,196.572 179.810,197.135 179.895 M164.630 182.593 C 165.425 183.407,166.160 184.074,166.261 184.074 C 166.363 184.074,165.796 183.407,165.000 182.593 C 164.204 181.778,163.470 181.111,163.368 181.111 C 163.266 181.111,163.834 181.778,164.630 182.593 M227.770 185.833 L 224.630 189.074 227.870 185.934 C 229.653 184.207,231.111 182.749,231.111 182.693 C 231.111 182.424,230.686 182.823,227.770 185.833 M168.799 186.590 C 169.969 187.771,170.999 188.683,171.089 188.618 C 171.306 188.462,167.331 184.444,166.959 184.444 C 166.801 184.444,167.629 185.410,168.799 186.590 M277.396 187.798 C 277.172 188.217,277.044 188.724,277.111 188.925 C 277.178 189.127,277.424 188.784,277.658 188.164 C 278.145 186.875,277.999 186.672,277.396 187.798 M221.481 192.037 C 219.964 193.565,218.806 194.815,218.907 194.815 C 219.009 194.815,220.334 193.565,221.852 192.037 C 223.369 190.509,224.528 189.259,224.426 189.259 C 224.324 189.259,222.999 190.509,221.481 192.037 M275.103 193.357 C 274.760 193.955,274.611 194.444,274.773 194.444 C 275.077 194.444,276.041 192.584,275.840 192.383 C 275.778 192.321,275.446 192.759,275.103 193.357 M215.556 197.963 C 214.038 199.491,212.880 200.741,212.982 200.741 C 213.083 200.741,214.408 199.491,215.926 197.963 C 217.444 196.435,218.602 195.185,218.500 195.185 C 218.398 195.185,217.073 196.435,215.556 197.963 M120.926 196.667 C 121.242 197.278,121.584 197.778,121.686 197.778 C 121.788 197.778,121.612 197.278,121.296 196.667 C 120.980 196.056,120.638 195.556,120.537 195.556 C 120.435 195.556,120.610 196.056,120.926 196.667 M209.630 203.889 C 208.112 205.417,206.954 206.667,207.056 206.667 C 207.157 206.667,208.482 205.417,210.000 203.889 C 211.518 202.361,212.676 201.111,212.574 201.111 C 212.472 201.111,211.147 202.361,209.630 203.889 M202.401 211.204 L 198.333 215.370 202.500 211.303 C 206.370 207.524,206.835 207.037,206.568 207.037 C 206.513 207.037,204.638 208.912,202.401 211.204 M124.431 211.277 C 125.055 212.184,125.742 213.034,125.958 213.168 C 126.174 213.301,125.739 212.560,124.992 211.520 C 123.324 209.198,122.864 208.999,124.431 211.277 M259.239 217.315 L 257.963 218.704 259.352 217.427 C 260.645 216.239,260.911 215.926,260.628 215.926 C 260.566 215.926,259.941 216.551,259.239 217.315 M135.769 217.730 C 136.161 218.111,136.547 218.365,136.627 218.295 C 136.860 218.088,135.873 217.037,135.445 217.037 C 135.231 217.037,135.376 217.349,135.769 217.730 M256.276 220.278 L 255.000 221.667 256.389 220.390 C 257.682 219.202,257.948 218.889,257.665 218.889 C 257.603 218.889,256.978 219.514,256.276 220.278 M134.630 222.963 C 136.045 224.389,137.286 225.556,137.388 225.556 C 137.489 225.556,136.415 224.389,135.000 222.963 C 133.585 221.537,132.344 220.370,132.242 220.370 C 132.140 220.370,133.215 221.537,134.630 222.963 M257.199 225.648 L 256.111 226.852 257.315 225.764 C 257.977 225.166,258.519 224.624,258.519 224.560 C 258.519 224.274,258.213 224.526,257.199 225.648 M142.726 229.916 C 143.019 230.390,145.185 231.993,145.185 231.736 C 145.185 231.644,144.573 231.103,143.826 230.532 C 143.078 229.962,142.583 229.684,142.726 229.916 M250.000 231.347 C 247.984 232.931,247.734 233.185,248.704 232.669 C 249.510 232.239,252.153 230.028,251.852 230.034 C 251.750 230.036,250.917 230.627,250.000 231.347 M191.209 243.599 C 191.772 243.684,192.605 243.682,193.061 243.594 C 193.516 243.506,193.056 243.436,192.037 243.439 C 191.019 243.442,190.646 243.514,191.209 243.599 M202.504 243.595 C 202.965 243.684,203.632 243.681,203.986 243.588 C 204.340 243.495,203.963 243.423,203.148 243.427 C 202.333 243.431,202.044 243.507,202.504 243.595 M193.251 248.420 C 194.122 248.498,195.455 248.497,196.213 248.417 C 196.972 248.338,196.259 248.274,194.630 248.275 C 193.000 248.276,192.379 248.342,193.251 248.420 M198.788 248.415 C 199.446 248.497,200.612 248.499,201.381 248.418 C 202.149 248.338,201.611 248.271,200.185 248.270 C 198.759 248.268,198.131 248.334,198.788 248.415 M60.926 265.743 C 61.745 266.029,65.900 266.138,65.466 265.863 C 65.210 265.700,64.000 265.578,62.778 265.590 C 61.556 265.603,60.722 265.672,60.926 265.743 M227.963 265.926 C 227.829 266.143,228.213 266.296,228.889 266.296 C 229.564 266.296,229.949 266.143,229.815 265.926 C 229.689 265.722,229.272 265.556,228.889 265.556 C 228.506 265.556,228.089 265.722,227.963 265.926 M265.741 265.926 C 265.610 266.137,265.929 266.296,266.481 266.296 C 267.034 266.296,267.353 266.137,267.222 265.926 C 267.096 265.722,266.763 265.556,266.481 265.556 C 266.200 265.556,265.867 265.722,265.741 265.926 M141.246 269.444 C 141.247 271.481,141.310 272.268,141.385 271.191 C 141.460 270.115,141.459 268.448,141.383 267.488 C 141.307 266.527,141.245 267.407,141.246 269.444 M136.830 276.852 C 136.830 282.759,136.881 285.124,136.944 282.107 C 137.006 279.090,137.006 274.257,136.943 271.366 C 136.881 268.476,136.830 270.944,136.830 276.852 M177.961 268.521 C 177.014 269.567,177.417 269.664,178.413 268.630 C 178.864 268.161,179.098 267.778,178.933 267.778 C 178.768 267.778,178.331 268.112,177.961 268.521 M54.842 269.124 C 54.420 269.661,54.079 270.286,54.085 270.513 C 54.092 270.740,54.282 270.593,54.508 270.185 C 54.734 269.778,55.171 269.153,55.480 268.796 C 55.788 268.440,55.944 268.148,55.825 268.148 C 55.706 268.148,55.264 268.587,54.842 269.124 M195.537 270.473 C 195.718 271.999,195.725 272.006,195.851 270.786 C 195.922 270.098,195.839 269.394,195.666 269.222 C 195.494 269.049,195.436 269.612,195.537 270.473 M202.916 269.352 C 203.434 270.013,206.438 270.300,206.795 269.722 C 206.889 269.569,206.228 269.503,205.326 269.575 C 204.325 269.655,203.437 269.510,203.047 269.205 C 202.469 268.752,202.457 268.766,202.916 269.352 M181.990 270.527 C 182.021 271.475,182.230 272.032,182.593 272.129 C 182.972 272.231,183.011 272.180,182.715 271.969 C 182.477 271.799,182.206 271.078,182.113 270.367 C 181.950 269.128,181.945 269.135,181.990 270.527 M241.820 269.746 C 241.988 269.914,242.772 269.994,243.562 269.925 L 245.000 269.799 243.258 269.620 C 242.300 269.522,241.653 269.579,241.820 269.746 M269.063 277.593 L 269.074 285.741 273.519 285.758 L 277.963 285.775 273.618 285.654 L 269.273 285.533 269.163 277.489 L 269.053 269.444 269.063 277.593 M283.986 269.892 C 284.447 269.980,285.113 269.977,285.467 269.884 C 285.821 269.791,285.444 269.719,284.630 269.723 C 283.815 269.727,283.525 269.803,283.986 269.892 M60.000 270.370 C 59.506 270.690,59.506 270.729,60.000 270.729 C 60.306 270.729,60.806 270.568,61.111 270.370 C 61.605 270.051,61.605 270.011,61.111 270.011 C 60.806 270.011,60.306 270.173,60.000 270.370 M66.481 271.481 C 67.093 271.886,67.759 272.218,67.963 272.218 C 68.167 272.219,67.788 271.887,67.121 271.480 C 65.548 270.521,65.033 270.523,66.481 271.481 M334.994 271.142 C 334.434 271.361,334.590 271.436,335.648 271.455 C 336.412 271.470,337.037 271.418,337.037 271.339 C 337.037 271.010,335.672 270.878,334.994 271.142 M53.760 272.889 C 53.711 274.614,54.448 277.037,55.023 277.037 C 55.126 277.037,55.001 276.662,54.744 276.204 C 54.487 275.745,54.174 274.370,54.047 273.148 L 53.817 270.926 53.760 272.889 M101.764 271.373 C 102.224 271.462,102.891 271.458,103.245 271.366 C 103.599 271.273,103.222 271.200,102.407 271.205 C 101.593 271.209,101.303 271.284,101.764 271.373 M145.838 271.373 C 146.298 271.462,146.965 271.458,147.319 271.366 C 147.673 271.273,147.296 271.200,146.481 271.205 C 145.667 271.209,145.377 271.284,145.838 271.373 M257.870 271.366 C 258.227 271.460,258.810 271.460,259.167 271.366 C 259.523 271.273,259.231 271.197,258.519 271.197 C 257.806 271.197,257.514 271.273,257.870 271.366 M299.541 271.373 C 300.002 271.462,300.669 271.458,301.023 271.366 C 301.377 271.273,301.000 271.200,300.185 271.205 C 299.370 271.209,299.081 271.284,299.541 271.373 M86.296 271.746 C 86.602 271.859,87.185 272.105,87.593 272.293 C 88.321 272.628,88.322 272.624,87.614 272.057 C 87.219 271.741,86.636 271.495,86.318 271.511 C 85.819 271.536,85.816 271.568,86.296 271.746 M175.926 271.852 C 175.474 272.144,175.522 272.212,176.182 272.217 C 176.628 272.220,177.096 272.056,177.222 271.852 C 177.514 271.380,176.656 271.380,175.926 271.852 M260.785 272.037 C 261.115 272.444,261.477 273.028,261.589 273.333 C 261.762 273.805,261.798 273.800,261.823 273.298 C 261.839 272.973,261.477 272.390,261.019 272.002 C 260.192 271.302,260.190 271.303,260.785 272.037 M291.064 272.130 C 290.621 272.694,290.628 272.722,291.111 272.348 C 291.417 272.111,292.167 271.844,292.778 271.755 L 293.889 271.592 292.731 271.537 C 292.016 271.503,291.378 271.730,291.064 272.130 M241.556 272.296 C 241.311 272.541,241.130 273.082,241.154 273.500 C 241.196 274.244,241.201 274.244,241.379 273.519 C 241.479 273.111,241.730 272.569,241.937 272.315 C 242.417 271.724,242.141 271.711,241.556 272.296 M313.056 272.635 C 311.384 273.706,311.539 273.952,313.241 272.929 C 314.963 271.893,315.017 271.850,314.599 271.858 C 314.412 271.862,313.718 272.211,313.056 272.635 M330.459 273.119 C 329.699 273.815,329.159 274.440,329.261 274.507 C 329.362 274.575,330.080 274.005,330.857 273.241 C 332.624 271.503,332.322 271.411,330.459 273.119 M245.555 280.666 L 245.740 289.074 245.840 280.952 C 245.895 276.485,245.812 272.701,245.656 272.544 C 245.499 272.387,245.453 276.042,245.555 280.666 M322.407 272.460 C 324.293 274.134,324.988 274.622,324.261 273.762 C 323.857 273.285,323.192 272.723,322.782 272.513 C 322.372 272.303,322.204 272.279,322.407 272.460 M96.335 273.902 C 95.702 274.622,95.185 275.322,95.185 275.457 C 95.185 275.593,95.311 275.545,95.466 275.352 C 95.620 275.158,96.235 274.458,96.831 273.796 C 97.428 273.134,97.819 272.593,97.700 272.593 C 97.581 272.593,96.967 273.182,96.335 273.902 M112.009 280.741 C 112.009 285.120,112.063 286.912,112.128 284.722 C 112.194 282.532,112.194 278.949,112.128 276.759 C 112.063 274.569,112.009 276.361,112.009 280.741 M207.036 281.001 C 206.935 285.523,206.980 289.095,207.137 288.938 C 207.294 288.780,207.377 285.080,207.322 280.715 L 207.221 272.778 207.036 281.001 M286.823 280.370 C 286.823 284.546,286.877 286.255,286.943 284.167 C 287.009 282.079,287.009 278.662,286.943 276.574 C 286.877 274.486,286.823 276.194,286.823 280.370 M199.586 274.363 C 199.464 275.099,199.518 275.445,199.723 275.240 C 199.910 275.053,200.001 274.506,199.925 274.024 C 199.808 273.283,199.756 273.335,199.586 274.363 M59.208 274.422 C 59.689 274.842,60.258 275.185,60.473 275.185 C 60.929 275.185,60.907 275.167,59.444 274.310 L 58.333 273.660 59.208 274.422 M81.574 275.737 C 80.912 276.025,80.370 276.343,80.370 276.445 C 80.370 276.546,80.912 276.409,81.574 276.140 C 82.236 275.872,83.028 275.560,83.333 275.448 C 83.827 275.266,83.827 275.242,83.333 275.229 C 83.028 275.221,82.236 275.450,81.574 275.737 M123.206 275.463 C 123.112 275.616,123.644 275.772,124.388 275.811 C 125.439 275.866,125.576 275.809,125.000 275.559 C 124.050 275.146,123.422 275.113,123.206 275.463 M259.630 275.556 L 258.333 275.828 259.515 275.877 C 260.165 275.904,260.800 275.759,260.926 275.556 C 261.052 275.352,261.103 275.207,261.040 275.234 C 260.977 275.261,260.343 275.405,259.630 275.556 M317.407 275.556 C 317.000 275.819,317.247 275.909,318.333 275.894 C 319.497 275.878,319.656 275.806,319.074 275.556 C 318.100 275.137,318.055 275.137,317.407 275.556 M333.718 275.723 C 333.473 276.019,333.350 276.560,333.445 276.927 C 333.584 277.461,333.626 277.431,333.661 276.778 C 333.684 276.329,333.995 275.793,334.352 275.585 C 334.708 275.378,334.812 275.203,334.582 275.196 C 334.353 275.190,333.964 275.427,333.718 275.723 M102.130 275.817 C 102.588 275.905,103.338 275.905,103.796 275.817 C 104.255 275.729,103.880 275.656,102.963 275.656 C 102.046 275.656,101.671 275.729,102.130 275.817 M145.000 275.830 C 145.815 275.913,146.815 276.260,147.222 276.601 C 147.957 277.217,147.957 277.216,147.257 276.389 C 146.715 275.749,146.200 275.570,145.035 275.618 L 143.519 275.680 145.000 275.830 M341.943 276.287 C 341.704 276.671,341.043 277.055,340.476 277.141 C 339.447 277.296,339.447 277.297,340.406 277.352 C 341.283 277.403,342.950 276.159,342.545 275.755 C 342.454 275.664,342.183 275.903,341.943 276.287 M160.805 276.783 C 159.770 277.885,159.780 278.530,160.833 278.476 C 161.460 278.443,161.506 278.391,161.019 278.263 C 160.237 278.059,160.170 277.461,160.897 277.182 C 161.187 277.071,161.515 276.743,161.626 276.453 C 161.907 275.722,161.738 275.790,160.805 276.783 M182.012 276.783 C 181.909 277.051,181.879 279.092,181.945 281.320 L 182.065 285.370 182.144 281.042 L 182.222 276.714 183.426 276.564 L 184.630 276.415 183.414 276.356 C 182.705 276.321,182.121 276.499,182.012 276.783 M190.278 276.542 C 190.617 276.678,190.741 278.101,190.741 281.861 C 190.741 284.684,190.866 287.071,191.019 287.166 C 191.171 287.261,191.246 284.854,191.185 281.817 C 191.086 276.898,191.005 276.299,190.444 276.326 C 190.059 276.343,189.994 276.427,190.278 276.542 M195.556 277.222 C 195.556 277.731,195.619 278.148,195.698 278.148 C 195.776 278.148,195.919 277.731,196.017 277.222 C 196.114 276.713,196.050 276.296,195.875 276.296 C 195.699 276.296,195.556 276.713,195.556 277.222 M234.828 276.503 C 234.851 277.124,235.900 278.731,235.901 278.148 C 235.902 277.843,235.658 277.269,235.359 276.874 C 235.060 276.478,234.821 276.312,234.828 276.503 M309.490 277.607 C 309.363 277.938,309.274 278.487,309.291 278.827 C 309.309 279.166,309.470 278.953,309.649 278.352 C 309.998 277.183,309.875 276.604,309.490 277.607 M306.432 280.926 C 306.433 282.963,306.495 283.749,306.570 282.673 C 306.645 281.596,306.644 279.930,306.568 278.969 C 306.492 278.008,306.431 278.889,306.432 280.926 M147.926 283.148 C 147.926 286.204,147.984 287.404,148.053 285.816 C 148.123 284.228,148.123 281.728,148.052 280.261 C 147.982 278.793,147.925 280.093,147.926 283.148 M164.537 278.403 C 164.894 278.497,165.477 278.497,165.833 278.403 C 166.190 278.310,165.898 278.234,165.185 278.234 C 164.472 278.234,164.181 278.310,164.537 278.403 M326.768 279.630 C 326.768 280.546,326.840 280.921,326.928 280.463 C 327.016 280.005,327.016 279.255,326.928 278.796 C 326.840 278.338,326.768 278.713,326.768 279.630 M195.633 281.931 C 195.563 285.194,195.625 285.566,196.296 285.926 C 196.799 286.195,197.037 286.199,197.037 285.939 C 197.037 285.728,196.793 285.556,196.495 285.556 C 196.064 285.556,195.928 284.813,195.832 281.944 L 195.711 278.333 195.633 281.931 M294.961 283.519 C 294.962 286.370,295.020 287.488,295.090 286.002 C 295.161 284.517,295.160 282.183,295.089 280.817 C 295.018 279.451,294.960 280.667,294.961 283.519 M93.818 280.926 C 93.821 282.148,93.890 282.603,93.972 281.938 C 94.055 281.272,94.053 280.272,93.968 279.716 C 93.884 279.159,93.816 279.704,93.818 280.926 M114.550 280.556 C 114.553 281.574,114.625 281.947,114.710 281.384 C 114.795 280.821,114.793 279.987,114.705 279.532 C 114.617 279.076,114.548 279.537,114.550 280.556 M141.255 283.519 C 141.256 286.167,141.315 287.201,141.386 285.818 C 141.458 284.434,141.457 282.268,141.385 281.003 C 141.313 279.738,141.254 280.870,141.255 283.519 M155.304 281.111 C 155.304 282.435,155.371 282.977,155.453 282.315 C 155.535 281.653,155.535 280.569,155.453 279.907 C 155.371 279.245,155.304 279.787,155.304 281.111 M253.850 283.889 C 253.850 286.741,253.909 287.858,253.979 286.373 C 254.050 284.887,254.049 282.554,253.978 281.187 C 253.907 279.821,253.849 281.037,253.850 283.889 M78.619 280.741 C 78.619 281.657,78.692 282.032,78.780 281.574 C 78.868 281.116,78.868 280.366,78.780 279.907 C 78.692 279.449,78.619 279.824,78.619 280.741 M59.815 279.983 C 60.526 280.305,62.510 280.515,62.191 280.234 C 62.106 280.159,61.370 279.997,60.556 279.873 C 59.523 279.715,59.299 279.749,59.815 279.983 M71.222 282.963 C 71.222 284.083,71.292 284.542,71.376 283.981 C 71.461 283.421,71.461 282.505,71.376 281.944 C 71.292 281.384,71.222 281.843,71.222 282.963 M325.741 281.852 C 325.604 282.073,323.206 282.222,319.793 282.222 C 314.096 282.222,314.074 282.225,314.117 283.056 C 314.149 283.683,314.202 283.728,314.329 283.241 C 314.481 282.660,315.070 282.593,319.956 282.593 C 324.182 282.593,325.576 282.470,326.133 282.049 C 326.528 281.750,326.653 281.500,326.411 281.493 C 326.168 281.487,325.867 281.648,325.741 281.852 M87.284 282.099 C 87.148 282.235,87.048 282.693,87.061 283.117 C 87.082 283.827,87.113 283.817,87.439 283.002 C 87.802 282.095,87.726 281.656,87.284 282.099 M106.746 283.205 C 106.518 283.949,106.478 284.408,106.658 284.224 C 107.020 283.853,107.583 281.852,107.325 281.852 C 107.235 281.852,106.974 282.461,106.746 283.205 M160.006 282.870 C 160.010 283.321,160.099 283.380,160.299 283.066 C 160.499 282.751,162.274 282.579,166.127 282.500 L 171.667 282.386 165.833 282.304 C 160.492 282.229,160.000 282.277,160.006 282.870 M335.741 283.147 C 336.991 283.736,338.405 283.927,337.407 283.372 C 337.102 283.202,336.352 282.964,335.741 282.843 L 334.630 282.623 335.741 283.147 M121.024 285.196 C 121.690 285.801,122.606 286.282,123.061 286.264 C 123.761 286.238,123.724 286.183,122.823 285.914 C 122.237 285.738,121.439 285.252,121.050 284.834 C 120.660 284.416,120.223 284.079,120.078 284.085 C 119.933 284.091,120.359 284.591,121.024 285.196 M168.312 285.027 C 167.916 285.348,167.814 285.497,168.085 285.358 C 168.355 285.219,169.022 284.971,169.566 284.807 C 170.360 284.567,170.405 284.502,169.793 284.476 C 169.374 284.459,168.707 284.707,168.312 285.027 M223.945 284.722 C 223.850 284.875,225.298 284.956,227.164 284.901 C 233.290 284.723,233.969 284.579,229.003 284.511 C 226.316 284.474,224.040 284.569,223.945 284.722 M306.390 286.111 C 306.394 286.926,306.470 287.216,306.558 286.755 C 306.647 286.294,306.643 285.628,306.551 285.273 C 306.458 284.919,306.386 285.296,306.390 286.111 M64.167 285.600 C 63.505 285.791,62.963 286.044,62.963 286.162 C 62.963 286.465,64.927 285.945,65.352 285.529 C 65.754 285.136,65.775 285.135,64.167 285.600 M59.815 285.926 C 60.922 286.402,61.847 286.402,61.111 285.926 C 60.806 285.728,60.222 285.576,59.815 285.587 L 59.074 285.608 59.815 285.926 M184.259 285.824 C 184.667 285.924,185.250 286.196,185.556 286.429 C 186.039 286.797,186.045 286.767,185.603 286.204 C 185.323 285.847,184.740 285.575,184.307 285.599 C 183.558 285.639,183.556 285.651,184.259 285.824 M316.852 285.926 C 317.259 286.101,317.926 286.244,318.333 286.244 L 319.074 286.244 318.333 285.926 C 317.926 285.751,317.259 285.608,316.852 285.608 L 316.111 285.608 316.852 285.926 M335.648 286.552 C 336.005 286.645,336.588 286.645,336.944 286.552 C 337.301 286.458,337.009 286.382,336.296 286.382 C 335.583 286.382,335.292 286.458,335.648 286.552 M311.852 287.963 C 312.543 288.676,313.192 289.259,313.293 289.259 C 313.395 289.259,312.913 288.676,312.222 287.963 C 311.531 287.250,310.882 286.667,310.781 286.667 C 310.679 286.667,311.161 287.250,311.852 287.963 M218.199 288.195 C 218.171 288.732,218.439 289.397,218.796 289.677 C 219.360 290.119,219.389 290.113,219.017 289.630 C 218.782 289.324,218.513 288.657,218.419 288.148 L 218.249 287.222 218.199 288.195 M127.222 289.137 C 126.500 289.692,126.503 289.700,127.351 289.446 C 128.286 289.167,128.245 290.183,127.269 291.481 C 126.912 291.957,126.941 291.968,127.464 291.559 C 128.183 290.997,128.690 289.280,128.261 288.860 C 128.097 288.700,127.630 288.824,127.222 289.137 M78.640 291.296 C 78.642 292.722,78.709 293.260,78.789 292.492 C 78.869 291.723,78.868 290.557,78.786 289.899 C 78.704 289.242,78.638 289.870,78.640 291.296 M250.613 290.093 C 250.707 290.245,251.181 290.370,251.667 290.370 C 252.152 290.370,252.626 290.245,252.721 290.093 C 252.815 289.940,252.341 289.815,251.667 289.815 C 250.993 289.815,250.518 289.940,250.613 290.093 M284.630 290.000 L 283.519 290.283 284.515 290.327 C 285.063 290.351,285.615 290.204,285.741 290.000 C 285.867 289.796,285.918 289.649,285.855 289.673 C 285.792 289.698,285.241 289.844,284.630 290.000 M181.764 290.262 C 182.224 290.351,182.891 290.347,183.245 290.254 C 183.599 290.162,183.222 290.089,182.407 290.093 C 181.593 290.098,181.303 290.173,181.764 290.262 M195.467 290.262 C 195.928 290.351,196.595 290.347,196.949 290.254 C 197.303 290.162,196.926 290.089,196.111 290.093 C 195.296 290.098,195.007 290.173,195.467 290.262 M268.611 290.276 C 270.394 290.344,273.310 290.344,275.093 290.276 C 276.875 290.208,275.417 290.152,271.852 290.152 C 268.287 290.152,266.829 290.208,268.611 290.276 M61.204 290.636 C 61.764 290.721,62.681 290.721,63.241 290.636 C 63.801 290.551,63.343 290.481,62.222 290.481 C 61.102 290.481,60.644 290.551,61.204 290.636 M83.245 290.632 C 83.706 290.721,84.372 290.718,84.727 290.625 C 85.081 290.532,84.704 290.460,83.889 290.464 C 83.074 290.468,82.784 290.544,83.245 290.632 M101.764 290.632 C 102.224 290.721,102.891 290.718,103.245 290.625 C 103.599 290.532,103.222 290.460,102.407 290.464 C 101.593 290.468,101.303 290.544,101.764 290.632 M122.504 290.632 C 122.965 290.721,123.632 290.718,123.986 290.625 C 124.340 290.532,123.963 290.460,123.148 290.464 C 122.333 290.468,122.044 290.544,122.504 290.632 M164.172 290.636 C 164.735 290.721,165.568 290.719,166.024 290.631 C 166.479 290.543,166.019 290.474,165.000 290.476 C 163.981 290.479,163.609 290.551,164.172 290.636 M317.875 290.636 C 318.438 290.721,319.272 290.719,319.727 290.631 C 320.183 290.543,319.722 290.474,318.704 290.476 C 317.685 290.479,317.312 290.551,317.875 290.636 M335.093 290.632 C 335.551 290.720,336.301 290.720,336.759 290.632 C 337.218 290.543,336.843 290.471,335.926 290.471 C 335.009 290.471,334.634 290.543,335.093 290.632 M117.360 291.759 C 116.918 292.323,116.924 292.352,117.407 291.980 C 117.713 291.745,118.380 291.476,118.889 291.382 L 119.815 291.212 118.842 291.162 C 118.305 291.134,117.640 291.402,117.360 291.759 M123.326 297.046 C 124.041 297.214,124.866 297.202,125.178 297.019 C 125.557 296.797,125.136 296.698,123.889 296.716 C 122.105 296.742,122.084 296.754,123.326 297.046 " stroke="none" fill="#223b45" fill-rule="evenodd"></path><path id="path6" d="M249.353 274.630 C 249.357 275.444,249.433 275.734,249.521 275.273 C 249.610 274.813,249.606 274.146,249.514 273.792 C 249.421 273.438,249.349 273.815,249.353 274.630 M202.746 280.185 C 202.746 283.852,202.801 285.302,202.869 283.407 C 202.936 281.513,202.936 278.513,202.868 276.741 C 202.800 274.968,202.745 276.519,202.746 280.185 M241.217 277.222 C 241.220 278.241,241.292 278.613,241.377 278.050 C 241.462 277.487,241.460 276.654,241.372 276.199 C 241.284 275.743,241.214 276.204,241.217 277.222 M282.365 280.000 C 282.365 282.546,282.424 283.588,282.496 282.315 C 282.569 281.042,282.569 278.958,282.496 277.685 C 282.424 276.412,282.365 277.454,282.365 280.000 M249.399 282.593 C 249.399 284.935,249.459 285.894,249.533 284.722 C 249.606 283.551,249.606 281.634,249.533 280.463 C 249.459 279.292,249.399 280.250,249.399 282.593 M301.996 283.519 C 301.996 286.167,302.055 287.201,302.127 285.818 C 302.198 284.434,302.198 282.268,302.126 281.003 C 302.054 279.738,301.995 280.870,301.996 283.519 M241.251 283.333 C 241.251 285.676,241.311 286.634,241.385 285.463 C 241.458 284.292,241.458 282.375,241.385 281.204 C 241.311 280.032,241.251 280.991,241.251 283.333 M282.316 286.481 C 282.320 287.296,282.396 287.586,282.484 287.125 C 282.573 286.665,282.569 285.998,282.477 285.644 C 282.384 285.290,282.312 285.667,282.316 286.481 " stroke="none" fill="#2a4155" fill-rule="evenodd"></path><path id="path7" d="M192.320 68.784 C 192.883 68.869,193.716 68.867,194.172 68.779 C 194.627 68.691,194.167 68.622,193.148 68.624 C 192.130 68.627,191.757 68.699,192.320 68.784 M201.019 68.780 C 201.477 68.868,202.227 68.868,202.685 68.780 C 203.144 68.692,202.769 68.619,201.852 68.619 C 200.935 68.619,200.560 68.692,201.019 68.780 M208.241 69.515 C 208.597 69.608,209.181 69.608,209.537 69.515 C 209.894 69.421,209.602 69.345,208.889 69.345 C 208.176 69.345,207.884 69.421,208.241 69.515 M208.426 138.416 C 209.088 138.498,210.171 138.498,210.833 138.416 C 211.495 138.334,210.954 138.267,209.630 138.267 C 208.306 138.267,207.764 138.334,208.426 138.416 M150.834 146.481 C 150.838 147.296,150.914 147.586,151.003 147.125 C 151.091 146.665,151.088 145.998,150.995 145.644 C 150.903 145.290,150.830 145.667,150.834 146.481 M150.834 150.926 C 150.838 151.741,150.914 152.030,151.003 151.570 C 151.091 151.109,151.088 150.442,150.995 150.088 C 150.903 149.734,150.830 150.111,150.834 150.926 M227.893 152.037 C 227.895 153.259,227.964 153.715,228.046 153.049 C 228.129 152.383,228.127 151.383,228.042 150.827 C 227.958 150.270,227.890 150.815,227.893 152.037 M107.879 154.074 C 107.879 154.991,107.951 155.366,108.039 154.907 C 108.127 154.449,108.127 153.699,108.039 153.241 C 107.951 152.782,107.879 153.157,107.879 154.074 M107.879 162.963 C 107.879 163.880,107.951 164.255,108.039 163.796 C 108.127 163.338,108.127 162.588,108.039 162.130 C 107.951 161.671,107.879 162.046,107.879 162.963 M260.162 216.759 L 259.074 217.963 260.278 216.875 C 260.940 216.277,261.481 215.735,261.481 215.671 C 261.481 215.385,261.176 215.637,260.162 216.759 M207.130 243.589 C 207.486 243.682,208.069 243.682,208.426 243.589 C 208.782 243.495,208.491 243.419,207.778 243.419 C 207.065 243.419,206.773 243.495,207.130 243.589 M196.759 244.339 C 197.319 244.424,198.236 244.424,198.796 244.339 C 199.356 244.254,198.898 244.185,197.778 244.185 C 196.657 244.185,196.199 244.254,196.759 244.339 M140.878 270.000 C 140.878 272.139,140.939 273.014,141.014 271.944 C 141.089 270.875,141.089 269.125,141.014 268.056 C 140.939 266.986,140.878 267.861,140.878 270.000 M245.156 267.870 C 245.046 268.666,245.102 269.120,245.289 268.934 C 245.467 268.755,245.554 268.130,245.481 267.545 C 245.359 266.566,245.333 266.592,245.156 267.870 M299.722 271.737 C 300.079 271.830,300.662 271.830,301.019 271.737 C 301.375 271.644,301.083 271.567,300.370 271.567 C 299.657 271.567,299.366 271.644,299.722 271.737 M182.685 272.478 C 183.042 272.571,183.625 272.571,183.981 272.478 C 184.338 272.384,184.046 272.308,183.333 272.308 C 182.620 272.308,182.329 272.384,182.685 272.478 M196.389 272.478 C 196.745 272.571,197.329 272.571,197.685 272.478 C 198.042 272.384,197.750 272.308,197.037 272.308 C 196.324 272.308,196.032 272.384,196.389 272.478 M290.834 274.259 C 290.838 275.074,290.914 275.364,291.003 274.903 C 291.091 274.442,291.088 273.776,290.995 273.422 C 290.903 273.068,290.830 273.444,290.834 274.259 M206.819 279.630 C 206.819 283.194,206.875 284.653,206.942 282.870 C 207.010 281.088,207.010 278.171,206.942 276.389 C 206.875 274.606,206.819 276.065,206.819 279.630 M245.342 280.926 C 245.342 285.204,245.396 286.903,245.462 284.702 C 245.527 282.501,245.527 279.001,245.461 276.924 C 245.395 274.847,245.342 276.648,245.342 280.926 M282.742 278.889 C 282.742 282.046,282.798 283.338,282.868 281.759 C 282.937 280.181,282.937 277.597,282.868 276.019 C 282.798 274.440,282.742 275.731,282.742 278.889 M74.545 277.037 C 74.545 277.954,74.618 278.329,74.706 277.870 C 74.794 277.412,74.794 276.662,74.706 276.204 C 74.618 275.745,74.545 276.120,74.545 277.037 M290.886 281.111 C 290.886 283.861,290.944 284.986,291.015 283.611 C 291.087 282.236,291.087 279.986,291.015 278.611 C 290.944 277.236,290.886 278.361,290.886 281.111 M306.061 280.926 C 306.062 282.963,306.124 283.749,306.199 282.673 C 306.274 281.596,306.274 279.930,306.198 278.969 C 306.122 278.008,306.060 278.889,306.061 280.926 M140.886 283.333 C 140.886 286.083,140.944 287.208,141.015 285.833 C 141.087 284.458,141.087 282.208,141.015 280.833 C 140.944 279.458,140.886 280.583,140.886 283.333 M181.613 281.667 C 181.612 283.500,181.674 284.297,181.752 283.437 C 181.830 282.578,181.831 281.078,181.754 280.104 C 181.678 279.130,181.614 279.833,181.613 281.667 M253.478 283.333 C 253.478 286.083,253.537 287.208,253.608 285.833 C 253.679 284.458,253.679 282.208,253.608 280.833 C 253.537 279.458,253.478 280.583,253.478 283.333 M342.316 284.630 C 342.320 285.444,342.396 285.734,342.484 285.273 C 342.573 284.813,342.569 284.146,342.477 283.792 C 342.384 283.438,342.312 283.815,342.316 284.630 M306.037 286.667 C 306.037 287.787,306.106 288.245,306.191 287.685 C 306.276 287.125,306.276 286.208,306.191 285.648 C 306.106 285.088,306.037 285.546,306.037 286.667 M282.699 286.852 C 282.701 287.870,282.773 288.243,282.858 287.680 C 282.943 287.117,282.941 286.284,282.853 285.828 C 282.765 285.373,282.696 285.833,282.699 286.852 M181.944 289.885 C 182.301 289.978,182.884 289.978,183.241 289.885 C 183.597 289.792,183.306 289.716,182.593 289.716 C 181.880 289.716,181.588 289.792,181.944 289.885 M195.278 289.885 C 195.634 289.978,196.218 289.978,196.574 289.885 C 196.931 289.792,196.639 289.716,195.926 289.716 C 195.213 289.716,194.921 289.792,195.278 289.885 M267.130 289.899 C 267.894 289.979,269.144 289.979,269.907 289.899 C 270.671 289.820,270.046 289.754,268.519 289.754 C 266.991 289.754,266.366 289.820,267.130 289.899 M273.241 289.901 C 274.106 289.979,275.523 289.979,276.389 289.901 C 277.255 289.823,276.546 289.759,274.815 289.759 C 273.083 289.759,272.375 289.823,273.241 289.901 M74.538 291.296 C 74.542 292.111,74.618 292.401,74.706 291.940 C 74.795 291.479,74.792 290.813,74.699 290.459 C 74.606 290.105,74.534 290.481,74.538 291.296 M123.241 296.558 C 123.699 296.646,124.449 296.646,124.907 296.558 C 125.366 296.469,124.991 296.397,124.074 296.397 C 123.157 296.397,122.782 296.469,123.241 296.558 " stroke="none" fill="#7c845c" fill-rule="evenodd"></path><path id="path8" d="M193.618 72.861 C 194.283 72.943,195.283 72.942,195.840 72.857 C 196.397 72.773,195.852 72.705,194.630 72.707 C 193.407 72.709,192.952 72.779,193.618 72.861 M199.167 72.861 C 199.829 72.943,200.912 72.943,201.574 72.861 C 202.236 72.778,201.694 72.711,200.370 72.711 C 199.046 72.711,198.505 72.778,199.167 72.861 M197.870 243.959 C 198.227 244.052,198.810 244.052,199.167 243.959 C 199.523 243.866,199.231 243.790,198.519 243.790 C 197.806 243.790,197.514 243.866,197.870 243.959 M264.231 278.148 C 264.231 282.528,264.285 284.319,264.350 282.130 C 264.416 279.940,264.416 276.356,264.350 274.167 C 264.285 271.977,264.231 273.769,264.231 278.148 M177.551 281.296 C 177.552 283.944,177.611 284.979,177.682 283.596 C 177.754 282.212,177.753 280.046,177.681 278.781 C 177.609 277.516,177.551 278.648,177.551 281.296 M227.500 280.640 C 228.264 280.720,229.514 280.720,230.278 280.640 C 231.042 280.560,230.417 280.495,228.889 280.495 C 227.361 280.495,226.736 280.560,227.500 280.640 " stroke="none" fill="#3c544c" fill-rule="evenodd"></path></g></svg>