<svg id="Capa_1" enable-background="new 0 0 512 512" height="512" viewBox="0 0 512 512" width="512" xmlns="http://www.w3.org/2000/svg"><path d="m512 256c0 44.05-11.13 85.51-30.73 121.7-11.06 20.44-24.82 39.19-40.8 55.8-.94.98-1.89 1.95-2.86 2.92-.59.6-1.2 1.2-1.8 1.79-38.06 37.33-89.61 57.79-142.99 57.79h-73.64c-53.38 0-104.93-20.46-142.99-57.79-.6-.59-1.21-1.19-1.8-1.79-.97-.97-1.92-1.94-2.86-2.92-15.98-16.61-29.74-35.36-40.8-55.8-19.6-36.19-30.73-77.65-30.73-121.7 0-141.38 114.62-256 256-256s256 114.62 256 256z" fill="#65b2ff"/><path d="m512 256c0 44.05-11.13 85.51-30.73 121.7-11.06 20.44-24.82 39.19-40.8 55.8-.94.98-1.89 1.95-2.86 2.92-.59.6-1.2 1.2-1.8 1.79-38.06 37.33-89.61 57.79-142.99 57.79h-73.64c-53.38 0-104.93-20.46-142.99-57.79-.6-.59-1.21-1.19-1.8-1.79-.97-.97-1.92-1.94-2.86-2.92-15.98-16.61-29.74-35.36-40.8-55.8-19.6-36.19-30.73-77.65-30.73-121.7 0-46.22 12.25-89.57 33.68-127 44.12 77.07 127.16 129 222.32 129s178.21-51.93 222.32-129c21.43 37.43 33.68 80.78 33.68 127z" fill="#0f9be8"/><path d="m30.74 377.7v.01c11.06 20.43 24.81 39.19 40.8 55.79.943.98 1.893 1.952 2.851 2.916 38.22 38.474 90.561 59.584 144.791 59.584h73.635c54.231 0 106.572-21.11 144.791-59.584.958-.964 1.908-1.936 2.851-2.916 15.99-16.6 29.74-35.36 40.8-55.79v-.01z" fill="#474f6f"/><path d="m256 377.7v118.3h36.818c54.231 0 106.571-21.11 144.791-59.584.958-.964 1.909-1.936 2.851-2.916 15.99-16.6 29.74-35.36 40.8-55.79v-.01z" fill="#313b5a"/><path d="m383.26 285.254 55.118-26.789c3.003-1.459 2.832-5.794-.275-7.013l-19.313-7.578c-3.333-1.308-6.959-1.683-10.49-1.087l-93.143 15.745z" fill="#fff"/><path d="m182.872 238.972 61.952 86.742c3.558 4.982 8.457 8.851 14.127 11.159l27.974 11.385c4.935 2.009 9.716-3.188 7.303-7.939l-35.868-70.625z" fill="#fff"/><path d="m201.581 203.846 102.728-18.435c7.456-1.338 15.139-.533 22.156 2.323l29.257 11.907c3.78 1.538 3.621 6.945-.242 8.259l-78.411 26.669z" fill="#fff"/><path d="m383.421 285.205c-.048.014-.109.033-.161.056l-23.12 7.572c-26.203 8.591-54.58 7.782-80.245-2.292l-33.124-12.992-149.002-58.467c-.874-.347-1.687-.768-2.436-1.271-5.219-3.448-7.373-10.344-4.574-16.327 1.222-2.615 3.253-4.63 5.695-5.907 2.448-1.264 5.296-1.785 8.155-1.39 2.755.387 5.536.43 8.256.128 5.786-.61 11.367-2.714 16.164-6.18.727-.524 1.457-1.057 2.188-1.589.928-.682 1.891-1.318 2.888-1.877 7.676-4.372 16.99-5.069 25.323-1.804l107.567 42.209 116.628 45.754c6.6 2.595 6.51 12.088-.202 14.377z" fill="#fff"/><path d="m383.421 285.205c-.048.014-.109.033-.161.056l-23.12 7.572c-26.203 8.591-54.58 7.782-80.245-2.292l-33.124-12.992 20.226-52.477 116.628 45.754c6.598 2.597 6.508 12.09-.204 14.379z" fill="#d1f6ff"/><path d="m186.419 200.165c-5.393-2.116-11.479.54-13.595 5.933l-4.891 12.464c-2.116 5.392.54 11.479 5.933 13.595 5.392 2.116 11.479-.541 13.595-5.933l4.891-12.464c2.115-5.393-.541-11.48-5.933-13.595z" fill="#d1f6ff"/><g fill="#383838"><path d="m217.537 236.229-6.896-2.706c-2.906-1.14-4.337-4.42-3.197-7.326l2.638-6.723c1.14-2.906 4.42-4.337 7.326-3.197l6.896 2.706c2.906 1.14 4.337 4.42 3.197 7.326l-2.638 6.722c-1.14 2.907-4.42 4.338-7.326 3.198z"/><path d="m246.34 247.531-6.896-2.706c-2.906-1.14-4.337-4.42-3.197-7.326l2.638-6.722c1.14-2.906 4.42-4.337 7.326-3.197l6.896 2.706c2.906 1.14 4.337 4.42 3.197 7.326l-2.638 6.722c-1.139 2.905-4.42 4.337-7.326 3.197z"/><path d="m275.144 258.832-6.896-2.706c-2.906-1.14-4.337-4.42-3.197-7.326l2.638-6.722c1.14-2.906 4.42-4.337 7.326-3.197l6.896 2.706c2.906 1.14 4.337 4.42 3.197 7.326l-2.638 6.722c-1.14 2.906-4.42 4.337-7.326 3.197z"/><path d="m303.948 270.134-6.896-2.706c-2.906-1.14-4.337-4.42-3.197-7.326l2.638-6.722c1.14-2.906 4.42-4.337 7.326-3.197l6.896 2.706c2.906 1.14 4.337 4.42 3.197 7.326l-2.638 6.722c-1.14 2.906-4.42 4.337-7.326 3.197z"/><path d="m147.088 200.237-4.994 3.005c-1.612.97-3.584 1.136-5.336.449l-23.889-9.373c5.786-.614 11.365-2.718 16.161-6.18.731-.526 1.459-1.06 2.186-1.595.93-.685 1.896-1.313 2.885-1.874l12.076 4.738c4.677 1.835 5.216 8.239.911 10.83z"/></g><path d="m104.605 194.189-9.27 23.627c-5.219-3.45-7.376-10.345-4.572-16.336 1.217-2.608 3.254-4.628 5.695-5.899 2.447-1.27 5.298-1.791 8.147-1.392z" fill="#e0e1e2"/><path d="m291.087 104.196c0-.067.005-.132.005-.199 0-12.17-9.866-22.037-22.036-22.037-2.891 0-5.65.563-8.18 1.575-4.887-8.754-14.237-14.678-24.975-14.678-13.944 0-25.55 9.986-28.073 23.196-.752-.108-1.52-.167-2.302-.167-7.582 0-13.934 5.248-15.631 12.309h101.192z" fill="#fff"/><path d="m269.586 104.196c0-.038.003-.076.003-.114 0-6.998-5.673-12.671-12.671-12.671-1.663 0-3.249.323-4.703.906-2.81-5.034-8.186-8.44-14.361-8.44-8.018 0-14.692 5.742-16.143 13.338-.432-.062-.874-.096-1.323-.096-4.36 0-8.012 3.018-8.989 7.078h58.187z" fill="#d0f6ff"/><path d="m125.374 282.749c0-.066.005-.132.005-.199 0-12.17-9.866-22.036-22.036-22.036-2.891 0-5.65.562-8.18 1.575-4.887-8.754-14.237-14.678-24.975-14.678-13.944 0-25.55 9.986-28.073 23.196-.752-.108-1.52-.167-2.302-.167-7.582 0-13.934 5.248-15.631 12.309z" fill="#fff"/><path d="m103.873 282.749c0-.038.003-.076.003-.114 0-6.998-5.673-12.671-12.671-12.671-1.663 0-3.249.323-4.703.906-2.81-5.034-8.186-8.44-14.361-8.44-8.018 0-14.692 5.742-16.143 13.338-.432-.062-.874-.096-1.323-.096-4.36 0-8.012 3.018-8.988 7.078h58.186z" fill="#d0f6ff"/><path d="m481.373 203.6c0-.066.005-.132.005-.199 0-12.171-9.866-22.036-22.037-22.036-2.891 0-5.65.563-8.18 1.575-4.887-8.754-14.237-14.678-24.974-14.678-13.944 0-25.551 9.986-28.073 23.196-.752-.108-1.52-.167-2.301-.167-7.582 0-13.934 5.248-15.631 12.309z" fill="#fff"/><path d="m459.872 203.6c0-.038.003-.076.003-.114 0-6.998-5.673-12.671-12.672-12.671-1.663 0-3.249.323-4.703.906-2.81-5.034-8.186-8.44-14.361-8.44-8.018 0-14.692 5.742-16.143 13.338-.432-.062-.874-.096-1.323-.096-4.36 0-8.012 3.018-8.988 7.078h58.187z" fill="#d0f6ff"/><path d="m440.46 433.5c-46.57 48.39-112 78.5-184.46 78.5s-137.89-30.11-184.46-78.5z" fill="#95d604"/><path d="m440.46 433.5c-46.57 48.39-112 78.5-184.46 78.5v-78.5z" fill="#84af10"/></svg>